<?xml version="1.0" standalone="no"?>
<!DOCTYPE svg PUBLIC "-//W3C//DTD SVG 20010904//EN"
 "http://www.w3.org/TR/2001/REC-SVG-20010904/DTD/svg10.dtd">
<svg version="1.0" xmlns="http://www.w3.org/2000/svg"
 width="2000.000000pt" height="2000.000000pt" viewBox="0 0 2000.000000 2000.000000"
 preserveAspectRatio="xMidYMid meet">
<metadata>
Created by potrace 1.11, written by Peter Selinger 2001-2013
</metadata>
<g transform="translate(0.000000,2000.000000) scale(0.100000,-0.100000)"
fill="#000000" stroke="none">
<path d="M9440 16295 c-160 -30 -346 -111 -473 -206 -94 -71 -225 -214 -281
-307 -100 -168 -146 -336 -146 -537 0 -145 17 -240 64 -367 55 -146 117 -239
246 -368 159 -159 297 -238 530 -303 65 -18 102 -21 280 -21 178 0 215 3 280
21 233 65 371 144 530 303 164 164 251 321 294 532 21 101 21 305 0 406 -43
211 -130 368 -294 532 -160 160 -303 241 -530 302 -100 27 -388 34 -500 13z
m-315 -823 c88 -45 139 -131 139 -237 0 -38 -6 -80 -13 -93 -11 -21 -16 -22
-74 -16 -95 10 -95 12 -22 112 25 34 44 62 42 62 -2 0 -32 -22 -68 -50 -35
-27 -69 -50 -75 -50 -12 0 -19 40 -30 178 -4 45 -8 81 -10 79 -2 -1 -8 -57
-14 -122 -6 -66 -13 -126 -16 -133 -3 -10 -18 -3 -52 22 -26 20 -60 46 -77 58
l-30 23 15 -22 c8 -13 33 -47 54 -78 23 -32 35 -59 30 -64 -5 -5 -39 -12 -76
-16 l-67 -6 -12 43 c-46 172 87 346 256 335 34 -3 78 -13 100 -25z m365 -257
c0 -163 -1 -165 -78 -165 -57 0 -84 33 -84 100 0 68 25 104 75 108 36 3 37 4
37 46 0 47 5 56 32 56 17 0 18 -11 18 -145z m1070 0 c0 -163 -1 -165 -78 -165
-56 0 -86 34 -86 100 0 66 27 104 77 108 36 3 37 4 37 46 0 47 5 56 32 56 17
0 18 -11 18 -145z m-1002 97 c3 -16 -2 -22 -17 -22 -26 0 -36 17 -20 36 16 19
33 13 37 -14z m2 -158 c0 -104 0 -105 -22 -102 -22 3 -23 8 -26 92 -3 103 0
116 28 116 19 0 20 -6 20 -106z m148 94 c7 -7 12 -43 12 -93 0 -93 -7 -105
-63 -105 -57 0 -77 14 -77 56 0 33 3 37 50 57 52 22 63 44 36 67 -12 9 -19 7
-37 -14 -12 -14 -26 -23 -31 -20 -14 9 -9 43 10 53 24 14 85 14 100 -1z m157
2 c4 -7 12 -7 25 0 29 15 86 12 101 -6 9 -11 14 -45 14 -103 0 -82 -1 -86 -22
-89 -22 -3 -23 -1 -23 75 0 86 -8 107 -36 101 -17 -3 -19 -14 -22 -91 -3 -85
-3 -87 -27 -87 -24 0 -24 2 -27 88 -3 85 -3 87 -28 87 -25 0 -25 -2 -28 -88
-3 -85 -4 -88 -25 -85 -20 3 -22 9 -25 89 -3 104 6 119 73 119 24 0 47 -5 50
-10z m290 4 c38 -15 59 -110 33 -157 -23 -45 -74 -60 -119 -37 -52 28 -63 129
-18 176 22 24 68 32 104 18z m210 -18 c12 -18 15 -44 13 -102 -3 -73 -5 -79
-25 -82 -22 -3 -23 -1 -23 81 0 88 -11 114 -43 101 -13 -5 -17 -24 -19 -92 -3
-82 -4 -87 -25 -90 -22 -3 -23 -1 -23 92 0 109 4 115 82 116 39 0 50 -4 63
-24z m-1437 -161 c8 -8 -21 -57 -36 -63 -8 -3 -32 14 -55 38 l-42 42 64 -6
c35 -3 67 -8 69 -11z m292 8 c0 -12 -63 -73 -76 -73 -12 0 -44 42 -44 59 0 5
12 12 28 14 48 7 92 7 92 0z m-232 -91 c4 -24 0 -25 -36 -16 -22 6 -22 7 -6
26 21 23 38 19 42 -10z m96 9 c16 -17 16 -19 -6 -25 -35 -9 -38 -8 -38 19 0
30 20 33 44 6z"/>
<path d="M9397 15225 c-40 -40 -26 -137 21 -143 22 -3 23 -2 20 74 -3 80 -13
97 -41 69z"/>
<path d="M10467 15225 c-46 -45 -23 -161 28 -141 13 5 15 20 13 78 -3 74 -14
91 -41 63z"/>
<path d="M9636 15134 c-18 -18 -19 -24 -7 -42 16 -25 46 -9 49 26 4 36 -15 43
-42 16z"/>
<path d="M10080 15204 c-27 -70 20 -159 56 -109 16 22 18 88 4 116 -15 28 -49
24 -60 -7z"/>
<path d="M6190 16095 c-160 -30 -346 -111 -473 -206 -94 -71 -225 -214 -281
-307 -100 -168 -146 -336 -146 -537 0 -145 17 -240 64 -367 55 -146 117 -239
246 -368 159 -159 297 -238 530 -303 65 -18 102 -21 280 -21 178 0 215 3 280
21 233 65 371 144 530 303 164 164 251 321 294 532 21 101 21 305 0 406 -43
211 -130 368 -294 532 -160 160 -303 241 -530 302 -100 27 -388 34 -500 13z
m-37 -835 l187 0 0 -210 0 -210 -425 0 -425 0 0 215 0 215 210 0 210 0 0 28 1
27 27 -33 27 -32 188 0z m323 -62 c5 -8 2 -9 -9 -5 -22 8 -22 -2 0 -18 10 -7
14 -19 10 -29 -8 -19 -38 -18 -44 1 -3 7 4 10 19 7 l23 -5 -22 12 c-29 15 -31
49 -4 49 11 0 23 -5 27 -12z m604 -28 c0 -36 -3 -40 -24 -40 -13 0 -27 7 -30
16 -7 19 10 44 30 44 8 0 14 5 14 10 0 6 2 10 5 10 3 0 5 -18 5 -40z m-535 10
c3 -5 -3 -10 -14 -10 -12 0 -21 -4 -21 -10 0 -5 9 -10 21 -10 11 0 17 -4 14
-10 -9 -15 -45 -12 -51 5 -4 8 -4 22 0 30 6 17 42 20 51 5z m35 -20 c0 -16 -4
-30 -10 -30 -5 0 -10 14 -10 30 0 17 5 30 10 30 6 0 10 -13 10 -30z m55 20 c4
-7 12 -7 18 -2 7 4 21 8 32 8 15 -1 20 -8 22 -31 1 -20 0 -23 -4 -7 -6 27 -33
29 -33 2 0 -11 -4 -20 -10 -20 -5 0 -10 8 -10 17 0 15 -1 15 -14 -2 -16 -22
-46 -14 -46 13 0 31 31 45 45 22z m140 0 c3 -5 -3 -10 -14 -10 -28 0 -27 -18
2 -23 20 -3 20 -4 4 -12 -27 -12 -55 18 -37 39 14 18 36 21 45 6z m68 -2 c7
-23 -5 -48 -24 -48 -22 0 -34 22 -25 45 7 18 43 20 49 3z m98 -20 c7 -26 5
-28 -22 -28 -33 0 -38 16 -11 36 16 13 16 14 -2 7 -14 -4 -17 -3 -12 6 13 20
39 8 47 -21z m66 -3 c1 -20 0 -23 -4 -7 -2 12 -11 22 -18 22 -7 0 -16 -10 -18
-22 -3 -18 -5 -15 -6 8 -1 26 2 31 22 30 17 -1 22 -7 24 -31z m-534 -72 c-7
-2 -13 -20 -13 -39 0 -19 -4 -34 -10 -34 -5 0 -10 15 -10 34 0 19 -6 37 -12
39 -7 3 3 5 22 5 19 0 29 -2 23 -5z m157 -2 c0 -5 9 -11 20 -14 14 -3 20 -14
20 -31 0 -14 -4 -26 -10 -26 -5 0 -10 12 -10 26 0 14 -4 23 -10 19 -5 -3 -10
-15 -10 -26 0 -10 -4 -19 -10 -19 -5 0 -10 18 -10 40 0 22 5 40 10 40 6 0 10
-4 10 -9z m210 -31 c0 -22 -4 -40 -10 -40 -5 0 -10 18 -10 40 0 22 5 40 10 40
6 0 10 -18 10 -40z m-312 3 c2 -7 -3 -13 -12 -13 -9 0 -16 -4 -16 -10 0 -5 7
-6 17 -3 11 4 14 3 9 -5 -18 -30 -55 -1 -42 34 7 18 37 15 44 -3z m67 6 c4 -6
0 -9 -10 -7 -10 2 -20 -2 -22 -9 -2 -6 6 -13 19 -15 21 -4 21 -5 5 -13 -27
-12 -55 18 -37 39 14 18 36 21 45 5z m143 -21 c2 -16 -1 -28 -7 -28 -6 0 -11
12 -11 26 0 14 -4 23 -10 19 -5 -3 -10 -15 -10 -26 0 -10 -4 -19 -10 -19 -5 0
-10 14 -10 31 0 27 3 30 28 27 21 -2 28 -9 30 -30z m67 2 c0 -18 -6 -26 -23
-28 -24 -4 -38 18 -28 44 3 9 15 14 28 12 17 -2 23 -10 23 -28z m95 15 c10
-12 10 -18 0 -30 -25 -30 -61 -7 -46 30 3 8 12 15 19 15 8 0 20 -7 27 -15z
m60 -9 c-6 -17 -5 -26 3 -29 9 -3 9 -8 1 -17 -16 -17 -49 -8 -48 13 1 9 2 26
3 37 1 14 8 20 26 20 22 0 24 -3 15 -24z m41 -4 c0 -13 3 -12 11 6 18 36 28
25 14 -15 -8 -24 -20 -39 -32 -40 -10 -2 -14 0 -7 3 9 4 9 13 2 30 -12 33 -12
47 1 39 6 -3 10 -14 11 -23z m-366 -72 c3 -5 1 -10 -4 -10 -6 0 -11 5 -11 10
0 6 2 10 4 10 3 0 8 -4 11 -10z m22 -57 c-2 -16 -4 -5 -4 22 0 28 2 40 4 28 2
-13 2 -35 0 -50z m33 57 c0 -5 -5 -10 -11 -10 -5 0 -7 5 -4 10 3 6 8 10 11 10
2 0 4 -4 4 -10z m80 0 c0 -5 -5 -10 -11 -10 -5 0 -7 5 -4 10 3 6 8 10 11 10 2
0 4 -4 4 -10z m530 0 c0 -5 -5 -10 -11 -10 -5 0 -7 5 -4 10 3 6 8 10 11 10 2
0 4 -4 4 -10z m30 -36 c0 -27 -4 -43 -10 -39 -17 11 -11 85 7 85 2 0 3 -21 3
-46z m-867 29 c-27 -5 -31 -23 -6 -23 15 0 15 -1 1 -12 -9 -7 -18 -20 -21 -28
-3 -8 -6 4 -6 28 -1 40 0 42 27 41 23 -2 24 -2 5 -6z m268 0 c0 -5 2 -23 4
-41 2 -21 -1 -32 -8 -29 -13 4 -26 46 -19 65 4 13 22 17 23 5z m264 -3 c4 -6
-4 -9 -17 -7 -17 1 -24 -4 -26 -22 -3 -21 -1 -23 25 -17 27 7 27 7 10 -11 -29
-30 -69 10 -53 53 6 16 52 19 61 4z m-461 -26 c11 -29 6 -40 -19 -42 -25 -2
-42 12 -26 23 6 3 8 12 4 20 -3 10 1 15 15 15 11 0 23 -7 26 -16z m66 6 c0 -6
-7 -10 -16 -8 -10 2 -19 -3 -21 -9 -3 -8 4 -13 17 -13 12 0 18 -4 15 -10 -17
-28 -54 3 -41 35 6 17 46 21 46 5z m27 -37 c-3 -10 -5 -2 -5 17 0 19 2 27 5
18 2 -10 2 -26 0 -35z m60 0 c-3 -10 -5 -2 -5 17 0 19 2 27 5 18 2 -10 2 -26
0 -35z m83 17 c0 -16 -4 -30 -10 -30 -5 0 -10 14 -10 30 0 17 5 30 10 30 6 0
10 -13 10 -30z m68 13 c2 -8 -6 -13 -20 -14 -21 0 -21 -1 -4 -8 12 -5 16 -10
9 -14 -27 -17 -58 24 -36 47 11 10 46 3 51 -11z m52 6 c0 -5 -6 -7 -12 -3 -9
5 -8 2 1 -10 16 -19 1 -43 -19 -31 -9 6 -9 10 1 16 10 6 11 9 2 9 -7 0 -13 7
-13 15 0 8 9 15 20 15 11 0 20 -5 20 -11z m174 -5 c7 -19 -10 -44 -31 -44 -17
0 -27 24 -19 45 7 20 42 19 50 -1z m45 -24 c5 0 12 10 14 23 3 17 5 14 6 -9 1
-26 -2 -31 -21 -30 -18 1 -24 8 -25 31 -2 27 -2 28 7 8 5 -13 14 -23 19 -23z
m96 19 c4 -12 2 -26 -4 -32 -8 -8 -11 -5 -11 10 0 33 -17 36 -28 6 l-10 -28
-1 33 c-1 27 2 32 23 32 16 0 27 -7 31 -21z m60 10 c4 -6 0 -9 -10 -7 -10 2
-20 -3 -22 -9 -3 -8 4 -13 17 -13 12 0 18 -4 15 -10 -9 -15 -35 -12 -41 5 -13
33 24 63 41 34z m32 -36 c-3 -10 -5 -2 -5 17 0 19 2 27 5 18 2 -10 2 -26 0
-35z"/>
<path d="M5928 15070 l3 -210 199 0 200 0 0 110 0 110 -55 0 -54 0 -3 -85 -3
-86 -143 186 c-79 102 -144 185 -145 185 -1 0 -1 -94 1 -210z"/>
<path d="M5980 15244 c0 -3 51 -71 113 -151 l112 -145 3 76 3 76 59 0 60 0 0
75 0 75 -175 0 c-96 0 -175 -3 -175 -6z"/>
<path d="M5540 15159 c0 -44 5 -68 17 -81 15 -17 15 -18 0 -18 -15 0 -17 -13
-17 -85 l0 -85 30 0 c27 0 30 3 30 33 l1 32 28 -32 27 -33 107 0 c100 0 107 1
107 20 0 15 -7 20 -25 20 -23 0 -25 4 -25 45 0 41 2 45 25 45 36 0 33 36 -7
77 l-32 33 32 33 c18 18 32 38 32 45 0 23 -44 12 -77 -20 l-33 -32 0 32 c0 32
0 32 -50 32 l-49 0 -3 -57 c-3 -55 -5 -58 -30 -61 -26 -3 -27 -2 -30 55 -3 55
-4 58 -30 61 -28 3 -28 3 -28 -59z m245 -79 c18 -19 17 -20 -3 -20 -15 0 -22
6 -22 20 0 11 2 20 3 20 2 0 12 -9 22 -20z m-85 -25 c0 -9 -6 -12 -16 -8 -13
5 -13 7 -2 14 17 11 18 11 18 -6z m-56 -41 c26 -10 18 -24 -14 -24 -20 0 -30
5 -30 15 0 16 17 19 44 9z m116 -39 c0 -44 0 -45 -33 -45 -45 0 -50 8 -27 38
11 13 20 31 20 38 0 8 9 14 20 14 17 0 20 -7 20 -45z"/>
<path d="M7040 15160 c0 -5 5 -10 10 -10 6 0 10 5 10 10 0 6 -4 10 -10 10 -5
0 -10 -4 -10 -10z"/>
<path d="M6770 15040 c0 -5 5 -10 10 -10 6 0 10 5 10 10 0 6 -4 10 -10 10 -5
0 -10 -4 -10 -10z"/>
<path d="M6866 15053 c-11 -11 -6 -23 9 -23 8 0 15 4 15 9 0 13 -16 22 -24 14z"/>
<path d="M7026 14933 c-11 -11 -6 -23 9 -23 8 0 15 4 15 9 0 13 -16 22 -24 14z"/>
<path d="M13310 15085 c-160 -30 -346 -111 -473 -206 -94 -71 -225 -214 -281
-307 -100 -168 -146 -336 -146 -537 0 -203 45 -367 147 -536 43 -72 52 -94 41
-101 -7 -5 -52 -29 -100 -54 -49 -24 -88 -49 -88 -54 0 -6 -6 -10 -13 -10 -8
0 -24 -11 -36 -24 -13 -14 -33 -26 -45 -28 -17 -2 -21 -9 -18 -35 2 -27 -3
-35 -28 -48 -16 -9 -30 -19 -30 -24 0 -5 -11 -12 -25 -15 -16 -4 -25 -13 -25
-26 0 -11 3 -20 8 -20 4 0 86 43 182 96 96 53 205 112 242 132 l67 35 75 -70
c125 -115 287 -201 486 -256 65 -18 102 -21 280 -21 178 0 215 3 280 21 233
65 371 144 530 303 164 164 251 321 294 532 21 101 21 305 0 406 -43 211 -130
368 -294 532 -160 160 -303 241 -530 302 -100 27 -388 34 -500 13z m372 -269
c309 -60 547 -283 629 -591 29 -111 29 -279 0 -390 -82 -308 -320 -532 -629
-591 -357 -68 -724 122 -874 453 -95 209 -94 466 2 672 154 327 519 515 872
447z"/>
<path d="M13350 14770 c-283 -74 -503 -301 -560 -582 -25 -117 -25 -199 -1
-313 57 -275 244 -481 521 -575 48 -16 98 -23 190 -27 161 -6 242 10 375 76
420 208 554 743 281 1124 -105 149 -275 261 -453 301 -99 22 -258 20 -353 -4z
m247 -71 c90 -34 137 -143 99 -232 -17 -41 -76 -93 -115 -102 -31 -7 -31 -7
-31 -76 0 -55 -3 -69 -15 -69 -12 0 -15 14 -15 68 l0 67 -53 25 c-110 53 -141
179 -64 267 51 58 125 78 194 52z m-409 -207 c45 -29 66 -107 42 -152 -8 -16
-3 -25 35 -56 44 -36 58 -64 32 -64 -7 0 -32 16 -56 36 -38 33 -45 35 -67 25
-60 -27 -142 -4 -169 49 -60 117 72 235 183 162z m845 -44 c22 -26 22 -60 -2
-89 -15 -19 -28 -23 -63 -23 -39 2 -50 -4 -112 -57 -39 -33 -76 -59 -83 -59
-30 0 -9 31 62 90 65 55 75 67 75 96 0 66 79 94 123 42z m-300 -300 c9 -11 17
-29 17 -39 0 -28 -56 -27 -65 1 -10 30 -45 26 -45 -5 0 -20 10 -30 50 -50 72
-37 90 -91 46 -141 -20 -24 -31 -28 -76 -28 -43 0 -56 4 -71 23 -11 13 -19 34
-19 47 0 20 5 24 29 24 23 0 30 -6 35 -26 9 -35 51 -31 51 6 0 19 -9 29 -44
45 -24 12 -50 30 -57 40 -18 24 -17 75 0 98 30 40 116 43 149 5z m-509 11 c34
-16 49 -66 44 -151 -3 -62 -7 -73 -31 -94 -23 -20 -39 -24 -93 -24 l-64 0 0
140 0 140 60 0 c32 0 70 -5 84 -11z m286 -14 c0 -23 -3 -25 -50 -25 -49 0 -50
-1 -50 -30 0 -29 2 -30 45 -30 41 0 45 -2 45 -25 0 -23 -4 -25 -45 -25 -45 0
-45 0 -45 -35 l0 -35 50 0 c47 0 50 -2 50 -25 0 -25 -1 -25 -85 -25 l-85 0 0
140 0 140 85 0 c84 0 85 0 85 -25z m369 -30 l15 -50 14 53 c14 50 16 52 48 52
19 0 34 -4 34 -9 0 -5 -13 -41 -30 -79 -22 -53 -30 -87 -30 -131 l0 -61 -35 0
-35 0 0 54 c0 40 -10 77 -35 137 -19 46 -35 85 -35 87 0 2 17 2 37 0 36 -3 38
-6 52 -53z m185 -180 c9 -25 -5 -45 -30 -45 -14 0 -27 7 -30 15 -10 25 4 45
30 45 13 0 26 -7 30 -15z m-749 -104 c3 -5 -30 -40 -73 -78 -68 -59 -78 -72
-78 -102 0 -79 -107 -97 -135 -24 -21 55 34 112 87 93 17 -7 35 5 95 56 73 63
92 73 104 55z m235 -60 c0 -69 0 -69 31 -76 39 -9 98 -61 115 -102 60 -143
-86 -289 -229 -229 -18 7 -47 29 -64 49 -79 90 -45 223 69 271 l48 20 0 68 c0
54 3 68 15 68 12 0 15 -14 15 -69z m277 33 c39 -32 47 -35 69 -25 80 36 171
-14 181 -99 6 -58 -25 -108 -81 -129 -33 -13 -44 -13 -79 0 -69 24 -108 110
-77 169 8 15 2 24 -35 55 -43 35 -58 65 -34 65 7 0 32 -16 56 -36z"/>
<path d="M13150 14031 c0 -84 2 -91 20 -91 25 0 32 27 28 110 -3 59 -5 65 -25
68 -22 3 -23 1 -23 -87z"/>
<path d="M3460 14375 c-160 -30 -346 -111 -473 -206 -94 -71 -225 -214 -281
-307 -100 -168 -146 -336 -146 -537 0 -145 17 -240 64 -367 55 -146 117 -239
246 -368 159 -159 297 -238 530 -303 65 -18 102 -21 280 -21 178 0 215 3 280
21 233 65 371 144 530 303 164 164 251 321 294 532 21 101 21 305 0 406 -43
211 -130 368 -294 532 -160 160 -303 241 -530 302 -100 27 -388 34 -500 13z
m150 -355 c28 -28 27 -84 -2 -104 -49 -35 -108 -7 -108 50 0 41 29 74 65 74
14 0 34 -9 45 -20z m230 0 c41 -41 7 -120 -52 -120 -24 0 -68 44 -68 68 0 59
79 93 120 52z m214 -61 c32 -25 34 -64 4 -96 -29 -31 -71 -30 -97 3 -27 35
-26 59 4 89 30 30 54 31 89 4z m-654 -16 c50 -64 -29 -143 -93 -93 -51 40 -23
120 42 120 20 0 36 -9 51 -27z m230 -81 c43 -35 4 -94 -50 -77 -32 10 -38 55
-10 77 12 10 26 18 30 18 4 0 18 -8 30 -18z m164 2 c30 -29 9 -84 -31 -84 -21
0 -53 29 -53 48 0 22 30 52 51 52 10 0 25 -7 33 -16z m450 -25 c32 -25 35 -70
5 -100 -28 -28 -76 -22 -102 13 -18 24 -19 30 -7 58 12 29 37 48 66 49 6 1 23
-8 38 -20z m-1031 -21 c22 -27 22 -49 -4 -82 -39 -50 -119 -22 -119 43 0 63
81 89 123 39z m272 -12 c13 -19 14 -29 6 -45 -25 -46 -91 -33 -91 19 0 50 58
68 85 26z m475 3 c9 -16 8 -26 -5 -45 -27 -41 -85 -27 -85 21 0 29 19 45 52
45 17 0 31 -7 38 -21z m-302 -102 c-2 -16 -10 -22 -28 -22 -28 0 -39 27 -20
50 18 21 52 1 48 -28z m106 20 c15 -24 -17 -56 -41 -41 -24 15 -26 29 -7 48
19 19 33 17 48 -7z m321 7 c25 -25 15 -67 -19 -79 -24 -8 -31 -6 -47 14 -24
29 -24 36 1 61 24 24 43 25 65 4z m-741 -10 c22 -21 20 -47 -4 -69 -41 -37
-102 24 -64 66 21 23 47 24 68 3z m514 -16 c28 -28 3 -66 -33 -52 -18 7 -20
50 -2 57 19 8 22 8 35 -5z m-303 -8 c11 -17 -5 -50 -24 -50 -24 0 -43 23 -35
44 7 18 49 22 59 6z m848 -38 c21 -19 22 -60 1 -90 -23 -33 -79 -27 -107 10
-17 23 -18 31 -8 56 21 50 72 61 114 24z m-1343 -12 c27 -27 25 -66 -6 -96
-29 -30 -67 -27 -96 8 -23 27 -23 49 3 82 25 32 70 35 99 6z m898 -16 c4 -29
-23 -51 -43 -34 -16 13 -20 42 -8 54 14 14 48 1 51 -20z m-493 6 c11 -17 -5
-50 -24 -50 -24 0 -43 23 -35 44 7 18 49 22 59 6z m200 -11 c0 -7 -8 -15 -17
-17 -18 -3 -25 18 -11 32 10 10 28 1 28 -15z m70 1 c0 -8 -8 -16 -17 -18 -13
-2 -18 3 -18 18 0 15 5 20 18 18 9 -2 17 -10 17 -18z m-131 -15 c3 -9 -1 -18
-10 -22 -19 -7 -39 11 -30 26 10 16 33 13 40 -4z m196 -5 c0 -21 -24 -28 -35
-10 -8 14 3 30 21 30 8 0 14 -9 14 -20z m390 0 c24 -24 25 -43 4 -65 -43 -43
-110 19 -69 65 23 25 40 25 65 0z m-950 -10 c24 -24 25 -38 3 -62 -18 -21 -53
-24 -71 -6 -17 17 -15 54 4 72 21 21 40 20 64 -4z m617 -34 c-4 -9 -11 -16
-17 -16 -17 0 -24 31 -9 41 18 11 34 -5 26 -25z m-312 4 c0 -8 -8 -16 -17 -18
-13 -2 -18 3 -18 18 0 15 5 20 18 18 9 -2 17 -10 17 -18z m483 -21 c4 -30 -22
-46 -44 -28 -17 14 -18 46 -1 52 25 11 42 1 45 -24z m-633 -9 c0 -30 -35 -40
-55 -15 -10 12 -10 18 0 30 20 25 55 15 55 -15z m105 -20 c0 -11 -6 -20 -14
-20 -18 0 -29 16 -21 30 11 18 35 11 35 -10z m405 0 c0 -22 -29 -18 -33 3 -3
14 1 18 15 15 10 -2 18 -10 18 -18z m590 -55 c14 -13 25 -34 25 -45 0 -29 -44
-70 -75 -70 -34 0 -65 33 -65 70 0 64 70 91 115 45z m-1022 0 c7 -18 -9 -29
-30 -21 -12 5 -13 9 -3 21 16 19 26 19 33 0z m465 -2 c5 -17 -26 -29 -40 -15
-6 6 -7 15 -3 22 9 14 37 9 43 -7z m136 -6 c9 -14 7 -21 -7 -32 -33 -24 -71
11 -46 42 15 18 39 13 53 -10z m191 -1 c13 -19 14 -29 6 -45 -25 -45 -91 -33
-91 17 0 54 56 72 85 28z m-1094 4 c26 -15 26 -66 -1 -80 -47 -25 -94 22 -65
66 17 26 35 30 66 14z m183 -6 c8 -21 -11 -44 -35 -44 -19 0 -35 33 -24 50 10
16 52 12 59 -6z m-384 -14 c24 -24 26 -57 4 -88 -11 -16 -25 -22 -54 -22 -29
0 -43 6 -54 22 -34 48 -4 108 54 108 17 0 39 -9 50 -20z m506 -221 c107 -51
106 -202 0 -253 -28 -13 -70 -16 -230 -16 -183 0 -197 1 -216 20 -27 27 -25
55 6 79 25 20 40 21 216 21 l189 0 -3 23 c-3 22 -4 22 -201 25 l-199 2 -34
-34 c-28 -28 -34 -42 -34 -75 0 -23 8 -53 17 -68 32 -48 62 -53 328 -53 l245
0 0 -55 0 -55 -256 0 c-279 0 -311 5 -369 52 -54 45 -79 101 -80 178 0 75 30
138 86 179 57 42 101 50 303 50 172 1 194 -1 232 -20z m849 -39 l0 -55 -260
-5 c-143 -3 -268 -9 -277 -13 -48 -24 -67 -112 -35 -161 32 -48 69 -56 260
-56 142 0 177 3 187 15 7 8 10 22 6 30 -4 13 -35 15 -197 15 -165 0 -195 2
-211 17 -22 19 -23 52 -4 79 13 18 28 19 224 19 197 0 212 -1 238 -21 68 -50
87 -128 48 -194 -37 -64 -64 -70 -299 -70 -239 0 -262 6 -327 78 -110 122 -55
317 104 367 32 10 107 13 293 12 l250 -2 0 -55z m185 -170 l0 -231 -57 3 -58
3 -3 215 c-1 118 0 220 2 227 4 8 25 13 61 13 l55 0 0 -230z"/>
<path d="M8681 13690 c-18 -4 -36 -12 -40 -17 -3 -5 -22 -31 -41 -58 -19 -26
-33 -53 -32 -59 2 -6 0 -8 -4 -4 -4 4 -23 -16 -44 -45 -31 -43 -35 -54 -24
-67 7 -8 18 -28 24 -44 6 -16 12 -27 14 -25 43 49 225 313 221 320 -7 10 -26
10 -74 -1z"/>
<path d="M16560 13305 c-160 -30 -346 -111 -473 -206 -94 -71 -225 -214 -281
-307 -59 -99 -108 -227 -131 -341 -23 -113 -16 -355 13 -453 18 -65 18 -68 1
-68 -9 0 -25 -3 -34 -7 -14 -5 -16 -2 -11 15 4 11 2 23 -4 27 -6 4 -13 -6 -16
-24 -4 -17 -13 -31 -20 -31 -13 0 -18 30 -17 103 0 9 -5 17 -10 17 -6 0 -8
-26 -5 -64 l5 -63 -117 -28 c-65 -15 -123 -24 -129 -21 -6 4 -11 4 -11 -1 0
-8 -36 -26 -77 -38 -20 -5 -23 -13 -23 -54 l0 -48 93 18 c50 10 139 29 197 43
126 31 123 31 110 7 -13 -25 -13 -64 0 -56 6 3 10 1 10 -4 0 -6 -7 -11 -15
-11 -8 0 -15 -5 -15 -11 0 -6 6 -9 14 -6 10 4 14 0 11 -13 -3 -14 1 -17 13
-13 14 5 15 3 5 -8 -16 -17 -17 -53 -1 -43 7 4 8 3 4 -5 -4 -6 -4 -21 -1 -32
7 -21 7 -21 19 2 7 14 9 33 5 44 -18 49 -22 61 -25 83 -3 25 3 26 40 12 21 -7
26 -6 26 5 0 8 -6 15 -13 15 -19 0 -44 22 -51 46 -5 18 1 22 46 34 35 9 53 9
56 2 1 -5 26 -50 55 -99 72 -123 247 -297 371 -370 98 -58 209 -104 326 -135
131 -36 414 -36 557 -1 20 4 26 -7 79 -171 72 -225 85 -233 21 -14 -14 47 -29
113 -32 145 l-7 59 43 13 c152 45 320 153 450 289 197 206 289 435 289 717 0
145 -17 240 -64 367 -55 146 -117 239 -246 368 -160 160 -303 241 -530 302
-100 27 -388 34 -500 13z m297 -781 c-133 -69 -14 -110 173 -60 47 12 94 26
105 30 11 4 4 -2 -15 -13 -54 -30 -150 -51 -230 -51 -73 0 -110 11 -110 33 0
17 49 63 80 76 47 18 45 10 -3 -15z m-77 -16 c-251 -111 -362 -207 -318 -277
7 -12 18 -21 24 -21 7 0 34 38 60 85 28 48 56 85 64 85 9 0 40 -43 74 -102 33
-57 61 -105 62 -106 3 -5 184 20 184 25 0 2 -28 37 -62 79 -65 77 -74 97 -47
102 9 2 41 -27 79 -73 34 -41 64 -75 65 -75 1 0 30 34 65 75 35 41 69 75 76
75 31 0 22 -25 -29 -88 -31 -37 -54 -68 -52 -70 5 -6 131 36 198 65 53 24 57
28 57 59 0 27 4 34 20 34 13 0 20 -7 20 -20 0 -11 5 -20 10 -20 6 0 10 10 10
21 0 17 5 20 25 17 14 -3 28 -1 31 3 3 5 15 14 27 20 17 8 15 4 -7 -16 l-29
-26 64 -124 c101 -196 83 -194 179 -12 75 144 98 174 115 147 3 -5 -31 -81
-76 -167 -87 -167 -115 -213 -129 -213 -5 0 -39 57 -76 128 -103 197 -113 212
-129 206 -12 -5 -15 -37 -17 -167 -3 -136 -5 -162 -18 -162 -13 0 -15 24 -18
148 -1 81 -5 147 -8 147 -2 0 -24 -10 -47 -22 -23 -12 -83 -35 -134 -53 l-92
-31 71 -83 c63 -73 69 -84 56 -98 -14 -13 -21 -8 -71 49 -30 35 -64 73 -74 86
l-18 22 -70 -82 c-39 -46 -76 -83 -83 -83 -7 0 -32 31 -55 70 l-42 69 -50 -2
c-27 -1 -74 2 -102 6 l-53 9 -45 -78 c-25 -44 -49 -79 -54 -79 -18 0 -29 28
-60 150 -18 69 -34 132 -37 140 -3 9 -37 -46 -82 -135 -42 -82 -82 -151 -89
-153 -7 -2 -44 59 -88 148 -42 84 -78 151 -80 149 -1 -2 -19 -67 -40 -144 -39
-148 -47 -167 -67 -147 -13 13 -4 56 65 310 29 107 39 101 127 -82 41 -85 77
-155 80 -155 3 -1 40 69 83 155 58 116 82 155 94 152 16 -3 21 -17 73 -215 12
-46 25 -83 29 -83 3 0 16 18 27 39 l21 39 -28 21 c-78 58 -32 143 128 241 53
32 209 100 228 99 6 0 -1 -5 -15 -11z m-1137 -771 c-3 -5 -10 -4 -15 1 -6 6
-7 16 -3 22 6 9 9 9 16 -1 4 -7 5 -17 2 -22z"/>
<path d="M16573 12254 c-18 -31 -33 -59 -33 -64 0 -4 14 -10 31 -14 39 -7 119
-8 119 -1 0 10 -74 135 -80 135 -3 0 -20 -25 -37 -56z"/>
<path d="M16827 12150 c-27 -5 -51 -11 -54 -14 -7 -7 37 -78 46 -74 11 4 81
84 81 92 0 7 -8 7 -73 -4z"/>
<path d="M6171 13253 c-28 -25 -51 -53 -51 -62 0 -16 83 59 101 92 15 26 6 21
-50 -30z"/>
<path d="M8109 12949 c-14 -19 -29 -40 -33 -47 -15 -25 33 6 50 33 25 39 11
51 -17 14z"/>
<path d="M11540 12809 c0 -5 5 -7 10 -4 6 3 10 8 10 11 0 2 -4 4 -10 4 -5 0
-10 -5 -10 -11z"/>
<path d="M13375 12665 c-16 -17 -36 -34 -44 -36 -10 -4 -12 -14 -7 -42 6 -34
8 -36 32 -27 33 13 34 13 34 -6 0 -14 2 -14 16 -3 14 11 18 10 30 -6 19 -25
18 -33 -10 -91 -13 -27 -26 -66 -29 -87 -5 -32 -2 -40 19 -53 16 -11 24 -26
24 -45 0 -19 5 -29 15 -29 13 0 15 32 15 230 l0 230 -32 -1 c-23 -1 -42 -11
-63 -34z"/>
<path d="M11040 12543 c-36 -20 -68 -41 -71 -46 -3 -5 -8 -7 -10 -5 -2 1 -42
-17 -88 -41 -91 -47 -93 -61 -11 -61 58 0 124 31 167 77 31 32 37 35 59 24 30
-13 34 -14 34 -3 0 5 -11 14 -25 20 -14 6 -25 19 -25 27 0 19 39 35 60 25 23
-11 110 -19 115 -9 3 4 -9 10 -27 13 -111 17 -111 17 -178 -21z"/>
<path d="M12755 12568 c-43 -15 -79 -49 -63 -60 21 -13 32 -9 76 24 54 42 49
57 -13 36z"/>
<path d="M10425 12216 c-33 -18 -107 -58 -165 -88 -337 -176 -380 -204 -380
-244 0 -12 -10 -28 -22 -37 -22 -15 -22 -16 -5 -33 13 -15 21 -16 35 -8 10 6
125 69 257 139 234 124 339 184 333 191 -2 1 -17 10 -33 18 l-30 16 36 0 c19
0 44 6 54 14 17 12 18 18 7 40 -6 14 -15 26 -19 26 -5 0 -35 -15 -68 -34z
m-20 -66 c-3 -5 -16 -10 -28 -10 -18 0 -19 2 -7 10 20 13 43 13 35 0z"/>
<path d="M6016 12137 c-27 -42 -52 -77 -56 -77 -4 0 -11 -20 -14 -44 -7 -43
-5 -46 38 -89 l44 -45 7 71 c5 44 4 72 -2 74 -6 2 -18 10 -29 17 -17 13 -16
17 25 79 24 37 41 72 39 79 -2 6 -26 -23 -52 -65z"/>
<path d="M15440 11985 c7 -8 16 -15 21 -15 5 0 6 7 3 15 -4 8 -13 15 -21 15
-13 0 -13 -3 -3 -15z"/>
<path d="M15280 11906 c0 -16 27 -29 41 -20 5 3 9 0 9 -6 0 -6 5 -8 11 -4 13
7 4 16 -33 32 -23 9 -28 9 -28 -2z"/>
<path d="M15295 11860 c3 -5 8 -10 11 -10 2 0 4 5 4 10 0 6 -5 10 -11 10 -5 0
-7 -4 -4 -10z"/>
<path d="M9605 11774 c-55 -30 -156 -85 -225 -121 -69 -36 -129 -69 -135 -73
-5 -5 -66 -38 -135 -75 -69 -37 -163 -87 -210 -112 -47 -25 -141 -77 -210
-116 -69 -39 -142 -79 -162 -89 -37 -18 -54 -36 -23 -25 8 4 17 2 20 -3 7 -11
-34 -23 -62 -18 -10 1 -35 -7 -56 -19 -41 -24 -48 -54 -21 -84 13 -15 20 -15
63 -4 27 7 66 24 87 39 21 14 42 26 47 26 7 0 301 158 567 305 52 29 145 78
205 110 61 32 165 89 232 127 68 37 128 68 134 68 14 0 7 96 -7 110 -6 6 -49
-13 -109 -46z m-815 -500 c0 -17 -26 -19 -36 -3 -7 12 15 31 28 23 4 -3 8 -12
8 -20z"/>
<path d="M7334 11781 c-40 -24 -62 -55 -75 -106 -6 -23 -27 -57 -49 -80 -37
-38 -97 -142 -87 -151 2 -2 17 15 32 38 16 24 27 43 25 43 -2 0 7 12 20 26 41
42 95 113 169 217 26 37 13 42 -35 13z"/>
<path d="M5903 11668 c3 -9 1 -19 -6 -22 -8 -3 -3 -12 13 -24 13 -11 29 -18
34 -15 5 3 6 1 2 -5 -3 -5 -1 -12 6 -14 23 -8 -4 -28 -36 -28 -37 0 -46 -15
-46 -79 l0 -34 43 7 c23 4 45 10 49 14 5 5 11 41 14 82 l5 75 -42 29 c-29 21
-41 25 -36 14z"/>
<path d="M4418 11604 c-20 -18 -33 -36 -29 -38 9 -6 77 61 70 68 -2 2 -21 -11
-41 -30z"/>
<path d="M15404 11525 c-8 -13 -13 -28 -10 -34 7 -11 93 -7 104 4 4 4 -18 5
-48 2 -39 -4 -50 -3 -38 4 10 5 22 19 28 29 16 30 -16 26 -36 -5z"/>
<path d="M14025 11512 c-68 -23 -122 -62 -103 -73 9 -6 6 -8 -10 -7 -16 2 -29
-5 -40 -21 l-16 -23 34 7 c19 4 37 10 40 14 3 3 21 7 40 9 19 1 42 5 50 8 8 4
25 8 37 10 21 2 135 31 163 41 8 3 28 7 43 8 15 2 31 5 34 9 8 8 -47 27 -58
20 -5 -3 -9 -1 -9 4 0 17 -151 13 -205 -6z"/>
<path d="M13840 11485 c-101 -20 -150 -35 -150 -45 0 -16 38 -11 77 10 45 24
50 24 86 5 33 -17 61 -7 70 25 6 23 6 23 -83 5z"/>
<path d="M1540 11445 c-160 -30 -346 -111 -473 -206 -94 -71 -225 -214 -281
-307 -100 -168 -146 -336 -146 -537 0 -145 17 -240 64 -367 55 -146 117 -239
246 -368 159 -159 297 -238 530 -303 65 -18 102 -21 280 -21 178 0 215 3 280
21 233 65 371 144 530 303 164 164 251 321 294 532 21 101 21 305 0 406 -43
211 -130 368 -294 532 -160 160 -303 241 -530 302 -100 27 -388 34 -500 13z
m-540 -840 l0 -75 60 0 60 0 0 75 0 75 40 0 40 0 0 -190 0 -190 -40 0 -40 0 0
80 0 80 -60 0 -60 0 0 -80 0 -80 -40 0 -40 0 0 190 0 190 40 0 40 0 0 -75z
m460 42 c0 -23 -20 -62 -76 -145 -41 -63 -74 -116 -72 -118 3 -2 82 -4 178 -5
156 -1 175 1 187 17 17 23 16 29 -3 48 -9 10 -33 16 -60 16 -44 0 -44 0 -44
-35 0 -34 -1 -35 -40 -35 l-40 0 0 145 0 145 95 0 c135 0 175 -24 175 -103 0
-19 -9 -45 -19 -59 -19 -24 -19 -25 -1 -41 43 -36 36 -114 -13 -151 -27 -20
-40 -21 -270 -21 l-242 0 -3 35 c-2 29 11 55 72 150 l75 115 -75 3 -74 3 0 34
0 35 125 0 125 0 0 -33z m400 -248 c0 -14 7 -19 25 -19 20 0 25 5 25 25 0 14
5 25 10 25 6 0 10 -26 10 -59 0 -33 -4 -63 -10 -66 -6 -4 -10 7 -10 24 0 26
-4 31 -25 31 -20 0 -25 -5 -25 -24 0 -14 -4 -28 -10 -31 -6 -4 -10 18 -10 60
0 42 4 64 10 60 6 -3 10 -15 10 -26z m210 -28 c0 -33 -4 -63 -10 -66 -6 -4
-10 18 -10 59 0 37 4 66 10 66 6 0 10 -26 10 -59z m190 39 c0 -15 7 -20 25
-20 23 0 25 -4 25 -46 0 -27 -4 -43 -10 -39 -5 3 -10 22 -10 41 0 48 -24 40
-28 -9 -2 -21 -7 -35 -13 -32 -12 8 -12 125 1 125 6 0 10 -9 10 -20z m190 -46
c0 -41 -4 -63 -10 -59 -18 11 -12 125 7 125 2 0 3 -30 3 -66z m63 26 c8 0 7
-4 -1 -12 -15 -15 -16 -58 -2 -58 6 0 10 -5 10 -11 0 -6 -8 -9 -17 -7 -22 4
-34 74 -18 101 8 15 11 15 13 2 2 -8 9 -15 15 -15z m-489 -16 c11 -28 7 -34
-25 -34 -19 0 -28 -4 -23 -11 3 -6 15 -9 25 -6 22 6 26 -11 5 -19 -39 -15 -74
44 -44 74 17 17 55 15 62 -4z m194 -23 c2 -18 -1 -38 -7 -44 -8 -8 -11 -1 -11
25 0 35 -14 57 -27 44 -3 -3 -9 -23 -13 -43 -7 -35 -8 -36 -9 -8 -3 65 -41 73
-41 9 0 -21 -4 -33 -10 -29 -5 3 -10 24 -10 46 l0 39 63 -2 62 -3 3 -34z m190
3 c4 -36 -18 -59 -47 -49 -47 15 -32 89 17 83 22 -2 28 -9 30 -34z m192 30 c0
-3 -9 -18 -21 -32 l-21 -27 21 -3 c31 -5 25 -22 -7 -22 -40 0 -44 9 -22 40 24
34 25 37 3 43 -10 3 -3 5 15 6 17 0 32 -2 32 -5z m-140 -215 c0 -33 -4 -59
-10 -59 -6 0 -10 29 -10 66 0 41 4 63 10 59 6 -3 10 -33 10 -66z m40 55 c0 -8
-5 -12 -10 -9 -6 4 -8 11 -5 16 9 14 15 11 15 -7z m-941 -16 c-7 -13 -21 -35
-31 -50 l-19 -28 30 0 c17 0 31 -4 31 -10 0 -5 -18 -10 -40 -10 -47 0 -50 11
-15 62 14 20 25 39 25 42 0 2 -12 7 -27 9 -20 3 -15 4 15 6 41 1 42 0 31 -21z
m694 10 c2 -7 0 -21 -5 -30 -5 -12 -5 -18 2 -18 16 0 12 -47 -6 -54 -9 -3 -27
-6 -40 -6 -23 0 -24 3 -24 60 l0 60 34 0 c19 0 36 -6 39 -12z m-447 -12 c9 -9
10 -17 4 -21 -13 -8 -13 -55 0 -55 6 0 10 -5 10 -11 0 -6 -8 -9 -17 -7 -25 5
-40 108 -16 108 2 0 11 -6 19 -14z m-158 -18 c21 -21 13 -38 -18 -38 -16 0
-30 -5 -30 -11 0 -7 10 -9 25 -6 16 3 24 0 22 -7 -5 -16 -36 -20 -52 -6 -30
25 -12 80 25 80 9 0 21 -5 28 -12z m100 -35 c2 -26 -1 -43 -7 -43 -6 0 -11 16
-11 35 0 24 -5 35 -15 35 -10 0 -15 -11 -15 -35 0 -19 -4 -35 -10 -35 -5 0
-10 20 -10 44 0 42 1 43 33 42 30 -1 32 -3 35 -43z m142 37 c0 -6 -7 -10 -15
-10 -10 0 -15 -10 -15 -29 0 -17 -4 -33 -10 -36 -6 -4 -10 11 -10 37 0 39 2
44 25 46 14 1 25 -3 25 -8z m30 -25 c0 -24 5 -35 15 -35 10 0 15 10 15 29 0
17 5 33 10 36 6 4 10 -11 10 -37 0 -40 -2 -44 -27 -46 -15 -1 -30 4 -35 10
-11 18 -10 78 2 78 6 0 10 -16 10 -35z m198 -13 c2 -25 -1 -42 -7 -42 -6 0
-11 16 -11 35 0 24 -5 35 -15 35 -10 0 -15 -11 -15 -35 0 -19 -4 -35 -10 -35
-5 0 -10 16 -10 35 0 24 -5 35 -15 35 -10 0 -15 -11 -15 -35 0 -19 -4 -35 -10
-35 -5 0 -10 20 -10 45 l0 45 58 -2 57 -3 3 -43z m230 21 c3 -19 -1 -23 -22
-23 -14 0 -26 -5 -26 -11 0 -7 10 -9 25 -7 14 3 25 2 25 -3 0 -14 -21 -21 -46
-15 -19 5 -24 13 -24 40 0 40 7 48 40 44 17 -2 26 -10 28 -25z m72 17 c0 -4
-7 -10 -15 -14 -9 -3 -15 -18 -15 -36 0 -18 -4 -29 -10 -25 -5 3 -10 23 -10
44 0 34 3 39 25 39 14 0 25 -4 25 -8z m80 -35 c0 -25 -4 -45 -10 -45 -5 0 -10
20 -10 45 0 25 5 45 10 45 6 0 10 -20 10 -45z m98 -2 c2 -26 -1 -43 -7 -43 -6
0 -11 16 -11 35 0 24 -5 35 -15 35 -10 0 -15 -11 -15 -35 0 -19 -4 -35 -10
-35 -5 0 -10 21 -10 46 0 45 0 45 33 42 30 -3 32 -6 35 -45z"/>
<path d="M1570 10570 l0 -41 46 3 c54 3 77 26 58 56 -7 11 -27 18 -58 20 l-46
3 0 -41z"/>
<path d="M1975 10370 c-3 -5 3 -10 15 -10 12 0 18 5 15 10 -3 6 -10 10 -15 10
-5 0 -12 -4 -15 -10z"/>
<path d="M2355 10360 c-7 -23 1 -40 20 -40 18 0 24 21 13 43 -12 23 -25 22
-33 -3z"/>
<path d="M2200 10200 c0 -22 7 -25 29 -11 16 10 6 31 -15 31 -8 0 -14 -9 -14
-20z"/>
<path d="M2200 10151 c0 -15 6 -21 21 -21 14 0 19 5 17 17 -5 26 -38 29 -38 4z"/>
<path d="M1605 10180 c-3 -5 3 -10 15 -10 12 0 18 5 15 10 -3 6 -10 10 -15 10
-5 0 -12 -4 -15 -10z"/>
<path d="M2305 10180 c-3 -5 1 -10 10 -10 9 0 13 5 10 10 -3 6 -8 10 -10 10
-2 0 -7 -4 -10 -10z"/>
<path d="M13375 11390 c-13 -6 -15 -9 -5 -9 25 -2 -9 -19 -51 -26 -21 -4 -45
-15 -55 -26 -9 -10 -27 -19 -39 -19 -19 0 -65 -37 -65 -52 0 -6 53 -44 96 -71
7 -4 30 11 53 33 23 22 50 40 61 40 10 0 23 6 27 14 4 7 33 16 63 19 30 3 72
11 93 17 33 10 36 14 26 26 -35 42 -155 73 -204 54z"/>
<path d="M13565 11366 c39 -18 76 -31 84 -28 17 6 -104 62 -133 62 -12 -1 9
-15 49 -34z"/>
<path d="M4556 11374 c-3 -10 -8 -43 -11 -72 -3 -30 -7 -57 -10 -62 -3 -4 3
-27 13 -51 l19 -43 12 89 c11 77 11 95 -2 124 -12 29 -16 31 -21 15z"/>
<path d="M12840 11248 c-93 -22 -110 -32 -92 -50 7 -7 12 -25 12 -40 0 -21 -5
-28 -19 -28 -10 0 -25 -7 -32 -16 -12 -15 -11 -16 6 -11 11 3 70 18 130 32
177 42 185 47 169 90 -6 14 -66 46 -83 44 -3 0 -44 -10 -91 -21z"/>
<path d="M9294 11210 c-32 -13 -82 -76 -93 -117 -26 -93 -5 -163 49 -163 28 0
29 2 20 26 -13 33 -13 96 1 131 25 66 75 89 123 58 21 -14 23 -14 35 12 11 24
10 29 -9 45 -23 19 -89 23 -126 8z"/>
<path d="M5845 11166 c-14 -14 -26 -41 -30 -68 l-7 -44 -223 4 c-217 4 -485
-11 -485 -28 0 -4 -22 -10 -50 -14 -27 -4 -50 -11 -50 -16 0 -5 -20 -12 -45
-16 -25 -3 -45 -9 -45 -13 0 -4 -21 -12 -47 -19 -48 -12 -113 -41 -123 -54 -3
-3 -18 -10 -33 -13 -15 -4 -27 -11 -27 -15 0 -4 -11 -11 -25 -14 -14 -4 -25
-10 -25 -15 0 -5 -13 -12 -29 -16 -16 -3 -32 -13 -35 -21 -3 -8 -12 -14 -20
-14 -7 0 -16 -7 -20 -15 -3 -8 -11 -15 -19 -15 -7 0 -26 -13 -42 -30 -16 -16
-33 -30 -38 -30 -9 0 -247 -238 -247 -247 0 -3 -11 -16 -24 -28 -13 -12 -27
-32 -31 -43 -3 -12 -11 -22 -16 -22 -5 0 -9 -7 -9 -15 0 -9 -6 -18 -14 -21 -8
-3 -18 -19 -21 -36 -4 -16 -13 -32 -21 -35 -8 -3 -14 -11 -14 -19 0 -8 -5 -14
-11 -14 -6 0 -9 -7 -5 -15 3 -8 2 -15 -3 -15 -8 0 -24 -38 -22 -52 1 -5 -3 -8
-8 -8 -5 0 -11 -18 -15 -40 -3 -22 -10 -40 -15 -40 -5 0 -12 -18 -16 -40 -4
-22 -11 -40 -15 -40 -5 0 -12 -25 -15 -55 -4 -30 -11 -55 -15 -55 -38 0 -38
-705 0 -730 4 -3 10 -26 14 -52 4 -27 11 -48 15 -48 5 0 12 -20 15 -45 4 -25
11 -45 16 -45 5 0 12 -16 16 -35 3 -19 11 -35 16 -35 6 0 8 -7 4 -15 -3 -8 -1
-15 4 -15 6 0 10 -7 10 -15 0 -8 4 -15 10 -15 5 0 7 -7 4 -15 -4 -8 -1 -15 5
-15 6 0 11 -7 11 -15 0 -8 4 -15 9 -15 5 0 15 -17 22 -37 6 -21 18 -42 25 -46
8 -4 14 -14 14 -21 0 -8 7 -16 15 -20 8 -3 15 -11 15 -17 0 -6 11 -22 25 -35
14 -13 25 -27 25 -33 0 -5 43 -52 95 -104 52 -52 95 -102 95 -111 0 -9 6 -13
15 -10 8 4 17 -1 21 -10 3 -9 12 -16 19 -16 8 0 26 -13 42 -28 15 -16 36 -31
46 -35 9 -3 17 -10 17 -15 0 -4 16 -14 35 -22 19 -8 35 -17 35 -21 0 -4 11
-10 25 -13 14 -4 25 -10 25 -15 0 -5 14 -12 30 -16 17 -4 30 -10 30 -15 0 -4
11 -11 25 -14 14 -4 25 -11 25 -16 0 -5 18 -13 40 -16 22 -4 40 -10 40 -15 0
-4 16 -11 35 -15 19 -3 35 -10 35 -14 0 -4 19 -10 42 -14 23 -4 45 -11 48 -16
3 -5 39 -14 80 -20 41 -7 86 -17 99 -23 36 -18 643 -17 649 1 2 6 15 12 29 12
41 0 153 23 153 31 0 4 20 11 45 15 25 3 45 10 45 14 0 4 16 11 35 14 19 4 35
11 35 15 0 5 16 12 35 15 19 4 35 11 35 16 0 4 14 11 30 15 17 4 30 10 30 15
0 5 14 11 30 15 17 4 30 10 30 14 0 4 26 20 58 36 31 17 61 36 65 43 4 6 13
12 19 12 6 0 21 11 34 25 13 14 27 25 31 25 14 0 263 251 263 265 0 7 11 21
25 31 14 10 25 25 25 32 0 7 7 15 16 19 8 3 13 11 11 18 -3 6 4 17 14 24 11 6
17 16 14 21 -3 6 -2 10 3 10 6 0 13 11 16 25 4 14 10 25 15 25 5 0 12 14 16
30 4 17 10 30 15 30 5 0 11 14 15 30 4 17 10 30 15 30 4 0 11 16 14 35 4 19
11 35 16 35 5 0 12 20 16 45 3 25 10 45 15 45 4 0 11 23 15 50 4 28 11 50 16
50 6 0 8 13 6 30 -2 16 0 31 6 33 16 5 21 446 6 566 -7 56 -16 101 -20 101 -4
0 -11 25 -15 55 -3 30 -10 55 -15 55 -4 0 -11 18 -15 40 -4 22 -11 40 -16 40
-5 0 -12 18 -15 40 -4 22 -10 40 -14 40 -5 0 -11 14 -15 30 -4 17 -10 30 -15
30 -5 0 -11 13 -15 29 -3 16 -13 32 -21 35 -8 3 -14 12 -14 21 0 8 -4 15 -10
15 -5 0 -7 6 -4 14 3 9 -3 17 -15 21 -12 4 -18 12 -14 21 3 7 0 14 -5 14 -6 0
-14 10 -17 22 -4 11 -18 31 -31 43 -13 12 -24 25 -24 28 0 10 -240 247 -250
247 -4 0 -22 14 -38 30 -17 17 -35 30 -42 30 -6 0 -13 6 -16 14 -3 8 -16 17
-30 20 -13 4 -24 11 -24 16 0 6 -6 10 -13 10 -8 0 -24 9 -37 20 -13 11 -29 20
-37 20 -7 0 -13 4 -13 9 0 5 -13 12 -30 16 -16 4 -30 10 -30 15 0 5 -13 11
-30 15 -16 4 -30 10 -30 14 0 4 -25 14 -55 21 -30 7 -55 16 -55 20 0 4 -20 11
-45 14 -25 4 -45 11 -45 16 0 4 -22 11 -50 15 -27 4 -50 11 -50 15 0 5 -12 10
-27 12 -26 3 -28 6 -27 42 2 40 35 83 55 70 5 -3 9 4 9 15 0 30 -44 28 -75 -3z
m-1507 -1588 c-3 -22 -8 -23 -95 -26 l-93 -3 0 -54 0 -55 39 0 c49 0 75 -25
46 -46 -10 -8 -34 -14 -52 -14 l-33 0 0 -55 0 -55 95 0 c95 0 95 0 95 -25 l0
-25 -120 0 -120 0 0 190 0 190 121 0 c119 0 120 0 117 -22z m840 2 c19 -18 22
-31 22 -100 0 -73 -2 -80 -26 -99 -21 -17 -41 -21 -95 -21 l-68 0 -3 -67 c-3
-60 -5 -68 -23 -68 -19 0 -20 8 -23 188 l-2 187 98 0 c85 0 101 -3 120 -20z
m767 -121 l60 -140 5 138 c5 134 6 138 28 141 l22 3 0 -190 0 -191 -33 0 c-32
0 -33 1 -92 138 l-60 137 -5 -135 c-5 -131 -6 -135 -27 -138 l-23 -3 0 190 0
191 33 0 c32 0 32 -1 92 -141z m456 131 c26 -14 89 -142 89 -180 0 -38 -63
-166 -89 -180 -11 -5 -49 -10 -85 -10 -60 0 -66 2 -66 21 0 12 8 23 20 26 19
5 20 14 20 144 0 114 -3 139 -14 139 -19 0 -29 17 -22 35 6 18 116 21 147 5z
m500 -11 c11 -11 19 -30 17 -42 -4 -29 -38 -35 -45 -8 -5 19 -13 21 -74 21
-38 0 -69 -3 -69 -6 0 -3 43 -61 95 -128 52 -66 95 -130 95 -140 0 -42 -28
-56 -114 -56 -96 0 -126 15 -126 61 0 22 5 29 19 29 11 0 23 -9 26 -20 6 -17
15 -20 76 -20 54 0 68 3 63 13 -5 6 -48 62 -96 123 -67 85 -88 119 -88 142 0
42 20 51 118 52 70 0 85 -3 103 -21z m-2290 -144 c19 -24 36 -45 39 -45 3 0
21 20 40 45 23 29 42 44 54 42 32 -4 29 -23 -14 -71 -22 -26 -40 -50 -40 -53
0 -4 18 -29 41 -55 40 -47 46 -78 15 -78 -7 0 -32 21 -54 47 l-40 48 -42 -48
c-23 -26 -48 -47 -55 -47 -29 0 -22 31 15 77 22 26 40 52 40 58 -1 5 -18 30
-40 54 -21 24 -36 50 -33 58 10 26 41 13 74 -32z m993 23 c8 -14 17 -66 21
-126 6 -88 4 -103 -9 -108 -9 -3 -23 -1 -30 6 -11 8 -20 8 -35 1 -11 -6 -40
-11 -66 -11 -75 0 -112 53 -86 123 12 30 56 47 122 47 41 0 49 3 49 19 0 21
-26 31 -82 31 -37 0 -54 12 -43 30 3 6 37 10 75 10 61 0 71 -3 84 -22z"/>
<path d="M5010 9480 l0 -70 58 0 c78 0 84 5 80 76 l-3 59 -67 3 -68 3 0 -71z"/>
<path d="M6350 9410 c0 -166 9 -176 60 -70 l34 70 -34 70 c-51 106 -60 96 -60
-70z"/>
<path d="M5452 9331 c-8 -4 -12 -19 -10 -32 3 -21 9 -24 46 -27 57 -4 97 20
82 48 -8 16 -21 20 -58 20 -26 0 -53 -4 -60 -9z"/>
<path d="M12147 11071 c-82 -20 -145 -40 -141 -44 5 -4 1 -5 -8 -2 -8 3 -92
-12 -184 -34 -93 -23 -179 -43 -191 -46 -19 -4 -21 -10 -18 -46 3 -23 6 -44 9
-46 2 -2 118 24 257 58 140 33 274 65 299 71 25 5 52 12 60 15 8 3 22 7 30 8
31 4 80 17 80 21 0 10 -35 84 -40 83 -3 -1 -72 -18 -153 -38z"/>
<path d="M13192 11078 c-21 -10 -22 -16 -16 -52 3 -23 8 -43 11 -46 10 -10 63
61 63 85 0 28 -19 32 -58 13z"/>
<path d="M13556 11069 c-3 -13 -8 -42 -11 -64 -5 -27 -19 -51 -45 -77 -32 -33
-44 -38 -82 -38 -30 0 -54 7 -70 19 -24 19 -24 19 -36 0 -16 -25 -30 -24 -51
3 -11 13 -24 19 -34 15 -23 -9 -21 -17 13 -59 84 -101 257 -105 346 -6 43 48
64 95 74 166 6 44 4 52 -9 52 -9 0 -33 3 -53 6 -33 6 -38 4 -42 -17z"/>
<path d="M6704 11016 c-9 -10 -4 -19 22 -40 31 -25 63 -28 49 -5 -4 5 -1 9 5
9 6 0 -2 11 -18 25 -34 28 -42 30 -58 11z"/>
<path d="M8175 10945 c53 -25 75 -30 75 -17 0 9 -88 42 -110 41 -8 0 8 -11 35
-24z"/>
<path d="M11045 10814 c-5 -1 -127 -30 -270 -64 -143 -34 -368 -88 -500 -120
-132 -32 -283 -68 -335 -81 -52 -12 -96 -23 -98 -24 -1 -1 6 -23 15 -49 15
-38 21 -46 38 -42 11 2 38 8 59 12 39 7 39 7 32 -22 -11 -45 -32 -56 -72 -39
-29 12 -34 12 -34 0 0 -8 10 -21 22 -29 51 -36 106 -6 115 60 l5 42 167 40
c91 22 342 82 556 133 215 50 394 95 399 100 21 18 -66 92 -99 83z"/>
<path d="M17241 10654 c0 -11 3 -14 6 -6 3 7 2 16 -1 19 -3 4 -6 -2 -5 -13z"/>
<path d="M7505 10583 c7 -50 11 -60 21 -51 9 10 -7 98 -18 98 -7 0 -8 -18 -3
-47z"/>
<path d="M17252 10605 c0 -16 2 -22 5 -12 2 9 2 23 0 30 -3 6 -5 -1 -5 -18z"/>
<path d="M10566 10548 c-53 -40 -74 -145 -41 -208 38 -74 131 -95 185 -42 92
93 45 273 -71 272 -29 -1 -54 -8 -73 -22z m107 -46 c38 -42 33 -141 -8 -168
-56 -36 -102 15 -92 102 8 74 61 109 100 66z"/>
<path d="M15417 10554 c-95 -52 -115 -236 -33 -313 71 -67 195 -29 227 68 44
132 -20 262 -128 261 -21 -1 -50 -8 -66 -16z m121 -84 c21 -30 23 -43 19 -95
-5 -48 -10 -64 -32 -82 -50 -44 -107 -19 -121 52 -24 130 71 219 134 125z"/>
<path d="M7283 10507 c-35 -17 -63 -38 -63 -45 0 -8 6 -12 15 -8 12 4 15 -3
15 -35 l0 -40 30 16 c27 14 30 20 30 65 0 47 11 63 25 40 4 -6 11 -7 17 -4 7
4 8 2 4 -4 -9 -14 28 -34 48 -26 9 3 16 10 16 14 0 7 -65 61 -72 59 -2 0 -31
-14 -65 -32z"/>
<path d="M14181 10499 c-81 -17 -133 -97 -133 -205 0 -121 61 -194 163 -194
97 0 159 80 159 204 0 138 -78 219 -189 195z m68 -75 c48 -34 67 -144 35 -205
-8 -17 -30 -37 -50 -45 -30 -13 -38 -13 -64 1 -69 36 -62 216 10 252 33 17 41
16 69 -3z"/>
<path d="M16175 10491 c-65 -40 -94 -99 -95 -195 0 -82 17 -131 61 -170 41
-38 96 -52 144 -37 26 8 27 9 7 10 -31 1 -120 91 -132 133 -15 50 -12 98 9
145 40 87 125 91 162 9 37 -83 17 -195 -41 -226 -11 -6 -18 -15 -15 -21 9 -14
36 -11 57 8 17 15 18 15 18 -6 0 -12 4 -19 10 -16 6 3 10 36 11 73 1 55 2 61
9 34 4 -18 5 -43 3 -55 -9 -34 12 -8 26 32 18 55 14 146 -10 202 -38 87 -149
127 -224 80z"/>
<path d="M9715 10433 c-11 -2 -25 -11 -32 -20 -8 -10 -21 -13 -41 -8 -24 5
-33 2 -46 -16 l-15 -22 -36 32 c-39 34 -58 37 -135 19 -56 -13 -92 -48 -105
-100 -7 -27 -6 -28 26 -22 19 4 39 13 44 21 40 60 77 72 114 39 21 -19 8 -20
229 30 67 15 119 31 114 36 -10 10 -91 18 -117 11z"/>
<path d="M17683 10376 c-39 -8 -109 -27 -155 -42 -46 -16 -87 -29 -93 -29 -5
0 -12 -3 -15 -6 -3 -4 -25 -17 -50 -29 -148 -75 -323 -227 -411 -358 l-49 -74
0 66 0 66 -34 0 c-22 0 -40 -7 -48 -18 -7 -10 -28 -29 -45 -42 -27 -20 -33
-30 -33 -62 0 -39 8 -45 39 -28 17 8 19 2 24 -78 3 -48 2 -107 -3 -132 -4 -25
-14 -80 -21 -124 l-13 -78 -230 6 c-127 3 -530 8 -896 11 -366 3 -701 8 -745
10 -44 2 -426 7 -850 10 -423 3 -860 8 -970 10 -110 2 -429 7 -710 10 -280 3
-631 8 -780 10 -148 3 -368 5 -487 5 l-218 0 0 125 0 125 -24 -4 c-13 -2 -33
-13 -44 -24 -11 -11 -27 -24 -37 -29 -12 -7 -14 -17 -10 -36 6 -22 10 -25 26
-16 18 9 19 5 19 -64 l0 -73 -385 4 -385 4 0 -40 c0 -51 -13 -59 -47 -32 l-27
21 -20 -21 c-16 -16 -18 -22 -8 -29 7 -4 205 -9 440 -10 253 -1 428 -6 430
-12 5 -13 69 -11 77 2 5 6 30 8 69 5 33 -3 324 -8 646 -11 987 -9 1493 -15
1785 -20 154 -3 690 -9 1190 -15 501 -5 1025 -12 1165 -15 140 -2 415 -5 610
-6 410 -2 420 -2 420 -34 0 -23 -28 -55 -48 -55 -13 0 -15 -14 -6 -47 5 -18
11 -22 31 -17 l24 7 -2 -134 -2 -134 36 -3 c33 -3 37 -1 37 20 0 16 8 6 26
-32 95 -204 305 -411 518 -511 60 -28 64 -32 69 -71 8 -62 35 -92 86 -96 34
-3 46 2 70 25 15 16 30 34 32 41 3 10 17 10 64 1 94 -17 373 -6 465 19 228 61
371 143 530 302 164 164 251 321 294 532 21 101 21 305 0 406 -43 211 -130
368 -294 532 -160 160 -303 241 -530 302 -98 26 -388 34 -497 14z m-606 -711
c3 -9 -2 -24 -11 -34 -9 -10 -16 -25 -16 -34 0 -9 -4 -17 -10 -17 -5 0 -10 23
-10 50 0 44 3 50 20 50 11 0 23 -7 27 -15z m73 3 c0 -7 3 -31 7 -53 6 -35 5
-39 -9 -27 -13 10 -17 10 -22 -4 -4 -9 -9 -15 -11 -12 -9 8 16 108 26 108 5 0
9 -6 9 -12z m81 -72 c5 -6 9 8 9 37 0 26 5 47 11 47 6 0 9 -21 7 -52 -3 -45
-6 -53 -23 -53 -17 0 -20 7 -21 55 -1 38 0 43 3 15 2 -22 9 -44 14 -49z m105
-6 c8 0 12 -4 9 -10 -3 -5 -13 -10 -21 -10 -11 0 -14 13 -12 58 2 56 2 56 5
10 3 -34 8 -48 19 -48z m124 80 c-13 -8 -12 -13 4 -41 17 -28 17 -32 2 -47 -8
-9 -19 -12 -23 -8 -5 5 -2 11 5 13 17 6 15 23 -4 44 -19 22 -12 49 13 49 15 0
16 -2 3 -10z m91 1 c-18 -12 -19 -70 0 -81 7 -5 10 -12 6 -16 -14 -14 -37 20
-37 56 0 41 6 50 29 50 13 0 14 -2 2 -9z m80 -31 c5 0 9 9 9 20 0 11 5 20 10
20 6 0 10 -22 10 -50 0 -27 -4 -50 -10 -50 -5 0 -10 11 -10 25 0 37 -18 31
-23 -7 -2 -18 -4 -6 -4 27 0 33 2 50 4 38 2 -13 9 -23 14 -23z m107 33 c-21
-5 -24 -29 -5 -37 10 -5 10 -7 0 -12 -18 -8 -16 -34 3 -34 8 0 12 -4 9 -10 -3
-5 -13 -10 -21 -10 -10 0 -14 14 -14 55 0 51 2 55 23 54 16 -1 18 -2 5 -6z
m95 -6 c3 -8 1 -20 -3 -27 -5 -7 -4 -24 1 -38 5 -14 7 -27 5 -30 -3 -3 -8 3
-12 12 -6 15 -7 15 -20 -1 -12 -16 -13 -11 -14 40 0 49 3 57 19 57 10 0 21 -6
24 -13z m93 -44 c1 -58 -2 -64 -16 -30 -7 17 -9 18 -9 5 -1 -10 -5 -18 -11
-18 -5 0 -10 23 -10 51 0 46 2 50 22 47 20 -3 23 -9 24 -55z m82 50 c-21 -5
-24 -29 -5 -37 10 -5 10 -7 0 -12 -15 -7 -17 -34 -3 -34 6 0 10 -4 10 -10 0
-5 -7 -10 -15 -10 -12 0 -15 13 -15 55 0 51 2 55 23 54 16 -1 18 -2 5 -6z m90
-44 c-1 -40 -4 -47 -12 -32 -9 16 -11 16 -17 -7 -5 -18 -7 -8 -8 33 -1 50 1
57 18 57 17 0 20 -7 19 -51z m122 1 c0 -27 -4 -50 -10 -50 -5 0 -10 23 -10 50
0 28 5 50 10 50 6 0 10 -22 10 -50z m70 28 l9 -23 0 23 c2 46 21 20 21 -28 0
-54 -15 -67 -27 -22 l-7 27 -7 -35 c-5 -30 -7 -26 -8 23 -1 61 4 71 19 35z
m100 12 c-13 -8 -12 -13 4 -41 17 -28 17 -32 2 -47 -8 -9 -19 -12 -23 -8 -5 5
-2 11 5 13 17 6 15 23 -4 44 -19 22 -12 49 13 49 15 0 16 -2 3 -10z m93 3 c-8
-3 -14 -26 -15 -56 l-2 -52 -3 50 c-3 27 -10 53 -16 57 -7 4 1 7 18 7 17 0 24
-3 18 -6z m67 -42 c0 -28 -4 -53 -10 -56 -6 -4 -10 15 -10 49 0 31 5 56 10 56
6 0 10 -22 10 -49z m72 -1 c-2 -27 -8 -50 -12 -50 -4 0 -10 23 -12 50 -2 39 0
50 12 50 12 0 14 -11 12 -50z m79 -40 c5 0 9 20 9 45 0 25 5 45 10 45 16 0 12
-86 -5 -100 -24 -20 -35 -2 -33 53 l2 52 3 -47 c2 -27 8 -48 14 -48z m101 40
c-2 -27 -8 -50 -12 -50 -4 0 -10 23 -12 50 -2 39 0 50 12 50 12 0 14 -11 12
-50z m-982 -127 c20 0 250 0 423 0 17 0 68 0 113 1 55 1 86 -3 97 -13 15 -12
17 -41 17 -231 0 -166 -3 -220 -13 -228 -9 -7 -116 -11 -319 -12 -266 0 -309
2 -322 16 -20 19 -22 124 -3 143 10 11 8 11 -10 2 -12 -6 -70 -11 -132 -11
l-110 0 -6 -57 c-9 -84 -12 -88 -87 -91 -95 -4 -93 -10 -92 241 1 271 -20 249
233 243 102 -2 197 -4 211 -3z m-257 -1199 c52 -17 51 -17 37 -45 -13 -24 -75
-27 -84 -3 -6 16 -8 64 -3 64 2 0 24 -7 50 -16z"/>
<path d="M17051 9654 c0 -11 3 -14 6 -6 3 7 2 16 -1 19 -3 4 -6 -2 -5 -13z"/>
<path d="M17131 9624 c0 -11 3 -14 6 -6 3 7 2 16 -1 19 -3 4 -6 -2 -5 -13z"/>
<path d="M17811 9654 c0 -11 3 -14 6 -6 3 7 2 16 -1 19 -3 4 -6 -2 -5 -13z"/>
<path d="M17901 9654 c0 -11 3 -14 6 -6 3 7 2 16 -1 19 -3 4 -6 -2 -5 -13z"/>
<path d="M18070 9656 c0 -9 5 -16 10 -16 6 0 10 4 10 9 0 6 -4 13 -10 16 -5 3
-10 -1 -10 -9z"/>
<path d="M17412 9468 c-17 -17 -17 -399 0 -416 7 -7 30 -12 53 -12 23 0 46 5
53 12 7 7 12 40 12 80 l0 67 133 3 132 3 0 135 0 135 -185 3 c-136 2 -189 -1
-198 -10z m258 -128 c0 -6 -30 -10 -70 -10 -40 0 -70 4 -70 10 0 6 30 10 70
10 40 0 70 -4 70 -10z"/>
<path d="M17834 9467 c-2 -7 -3 -69 -2 -138 l3 -124 138 -3 c111 -2 137 -5
137 -17 0 -12 -26 -15 -137 -17 l-138 -3 0 -60 0 -60 185 -3 c165 -2 186 -1
197 15 9 11 13 55 13 129 0 148 4 144 -156 144 -76 0 -124 4 -124 10 0 6 50
10 130 10 118 0 130 2 140 19 14 27 13 84 -2 99 -18 18 -377 17 -384 -1z"/>
<path d="M18262 9468 c-17 -17 -17 -399 0 -416 16 -16 160 -16 176 0 9 9 12
69 12 208 0 139 -3 199 -12 208 -7 7 -42 12 -88 12 -46 0 -81 -5 -88 -12z"/>
<path d="M9161 10351 c-15 -10 -6 -91 10 -91 6 0 8 4 5 9 -4 5 3 7 13 4 18 -4
19 -2 10 34 -5 21 -9 41 -9 46 0 9 -12 9 -29 -2z"/>
<path d="M9570 10311 c0 -5 -9 -11 -20 -14 -14 -4 -20 -14 -20 -34 0 -17 -6
-51 -14 -76 -15 -49 -10 -57 34 -57 29 0 48 71 42 163 -2 24 -22 41 -22 18z"/>
<path d="M9310 10163 c0 -19 42 -75 63 -82 17 -7 26 -4 42 14 11 13 29 26 40
28 13 3 9 5 -11 6 -17 0 -39 10 -49 21 -17 19 -85 29 -85 13z"/>
<path d="M8323 10110 c-35 -14 -103 -60 -103 -69 0 -10 39 -3 56 10 6 5 13 7
15 5 2 -2 47 6 99 19 83 20 92 24 70 33 -31 12 -108 13 -137 2z"/>
<path d="M7897 10050 c-26 -8 -52 -27 -147 -108 l-35 -30 47 10 c34 8 61 25
102 63 l56 51 35 -29 c28 -23 42 -28 62 -22 l27 6 -39 34 c-41 35 -60 39 -108
25z"/>
<path d="M3185 9999 c-6 -36 -2 -60 9 -48 10 11 17 89 8 89 -6 0 -13 -18 -17
-41z"/>
<path d="M7584 9949 c3 -17 6 -41 6 -52 0 -15 3 -18 11 -10 13 13 2 93 -13 93
-6 0 -8 -12 -4 -31z"/>
<path d="M13334 9921 c3 -5 -1 -12 -10 -15 -9 -3 -12 -2 -8 5 3 6 -8 3 -25 -5
-35 -18 -42 -46 -11 -46 21 0 20 9 23 -152 1 -60 4 -68 20 -68 17 0 18 2 6 17
-8 10 -9 14 -2 10 6 -4 14 -3 18 3 3 5 -2 10 -12 11 -16 0 -16 1 2 9 19 8 19
9 -2 9 -13 1 -23 6 -23 12 0 6 9 8 23 3 22 -7 22 -7 2 12 -11 11 -16 16 -11
12 20 -16 23 -6 25 92 1 66 -2 100 -9 100 -6 0 -9 -4 -6 -9z m6 -152 c0 -5 -4
-9 -8 -9 -5 0 -9 7 -9 15 0 8 4 12 9 9 4 -3 8 -9 8 -15z"/>
<path d="M7256 9901 c-74 -18 -82 -26 -72 -67 5 -17 12 -24 21 -20 8 3 22 9
30 12 10 4 15 0 15 -10 0 -19 3 -19 53 -5 36 10 37 11 37 59 0 28 -3 49 -7 49
-5 -1 -39 -9 -77 -18z"/>
<path d="M14048 9890 c-34 -31 -38 -65 -8 -57 18 5 20 0 21 -51 0 -32 0 -76
-1 -100 -1 -32 3 -44 16 -49 16 -6 16 -7 -2 -14 -15 -6 -12 -8 14 -8 l33 -1
-2 58 c-1 31 -7 60 -13 64 -8 5 -7 8 2 8 19 0 14 34 -6 47 -11 7 -18 21 -16
35 1 12 3 28 3 33 1 6 6 2 12 -8 6 -10 9 -27 6 -38 -3 -10 -1 -19 3 -19 4 0 8
29 7 64 0 58 -2 63 -21 63 -12 0 -33 -12 -48 -27z"/>
<path d="M12770 9886 c0 -2 7 -6 15 -10 8 -3 15 -1 15 4 0 6 -7 10 -15 10 -8
0 -15 -2 -15 -4z"/>
<path d="M12763 9830 c-33 -41 -28 -59 7 -25 28 27 40 56 23 54 -5 0 -18 -13
-30 -29z"/>
<path d="M11982 9803 c-20 -8 -42 -59 -42 -97 0 -67 35 -106 95 -106 39 0 75
53 75 109 0 66 -28 101 -78 100 -20 0 -43 -3 -50 -6z m70 -40 c20 -18 24 -73
8 -104 -15 -28 -58 -25 -71 5 -15 31 -3 92 19 105 22 14 23 14 44 -6z"/>
<path d="M12741 9574 c0 -11 3 -14 6 -6 3 7 2 16 -1 19 -3 4 -6 -2 -5 -13z"/>
<path d="M7232 9495 c-13 -13 -21 -29 -17 -34 3 -6 0 -9 -8 -5 -8 3 -20 -2
-27 -11 -11 -13 -9 -15 14 -15 36 0 82 30 64 41 -8 5 5 9 35 9 40 0 47 3 47
20 0 30 -76 26 -108 -5z"/>
<path d="M7644 9468 c7 -44 12 -55 21 -46 9 9 -7 88 -18 88 -6 0 -7 -16 -3
-42z"/>
<path d="M8100 9474 c0 -31 3 -35 23 -32 17 2 23 11 25 36 3 29 1 32 -22 32
-23 0 -26 -4 -26 -36z"/>
<path d="M8620 9485 c0 -8 3 -15 8 -15 4 0 8 -12 8 -26 2 -27 10 -41 20 -32 8
8 -17 88 -28 88 -4 0 -8 -7 -8 -15z"/>
<path d="M9253 9470 c-14 -37 1 -60 43 -68 16 -3 161 -7 322 -9 l292 -4 -3 22
c-6 36 -29 45 -76 29 -43 -14 -71 -4 -71 26 0 29 -41 34 -267 34 l-229 0 -11
-30z"/>
<path d="M9310 9350 c-8 -6 -25 -10 -37 -10 -24 0 -41 -19 -25 -29 38 -24 76
-59 88 -83 12 -23 19 -27 40 -22 17 4 31 1 45 -12 21 -19 21 -19 16 12 -9 56
-37 96 -97 141 -10 8 -21 9 -30 3z"/>
<path d="M9922 9250 c-103 -24 -157 -188 -99 -300 33 -64 66 -85 138 -85 58 0
62 2 99 41 47 50 64 108 57 187 -6 71 -40 127 -90 150 -38 18 -54 19 -105 7z
m87 -79 c19 -19 41 -79 41 -111 0 -32 -22 -92 -41 -111 -11 -11 -33 -19 -53
-19 -60 0 -95 67 -81 156 13 86 86 133 134 85z"/>
<path d="M12084 9065 c-42 -45 -54 -119 -29 -182 21 -53 52 -73 111 -73 38 0
51 5 74 30 60 64 60 171 0 232 -23 23 -37 28 -76 28 -40 0 -51 -5 -80 -35z
m118 -32 c33 -38 34 -126 1 -158 -24 -24 -70 -19 -89 10 -21 32 -15 117 11
145 22 25 57 26 77 3z"/>
<path d="M7210 9036 c0 -51 1 -53 35 -63 l35 -11 0 52 c0 51 -1 53 -35 63
l-35 11 0 -52z"/>
<path d="M16233 9040 c-47 -29 -67 -73 -67 -150 0 -75 13 -103 57 -130 93 -57
197 17 197 140 0 121 -98 195 -187 140z m106 -56 c16 -20 21 -41 21 -84 0 -70
-25 -110 -70 -110 -52 0 -83 60 -73 142 10 76 80 105 122 52z"/>
<path d="M7717 8888 c7 -56 23 -73 23 -26 0 41 -8 68 -20 68 -5 0 -6 -19 -3
-42z"/>
<path d="M8920 8573 c0 -4 -16 -19 -35 -32 -19 -13 -32 -27 -29 -32 3 -5 18 1
34 13 24 17 32 19 44 8 9 -7 14 -16 11 -20 -2 -4 2 -16 10 -26 18 -24 18 -11
1 45 -7 25 -18 47 -24 49 -7 2 -12 0 -12 -5z"/>
<path d="M14090 8555 c0 -8 5 -15 10 -15 6 0 10 7 10 15 0 8 -4 15 -10 15 -5
0 -10 -7 -10 -15z"/>
<path d="M14035 8536 c-25 -20 -28 -27 -17 -38 11 -11 15 -10 25 7 6 11 12 24
12 28 0 4 7 12 15 17 8 5 11 10 5 10 -5 0 -23 -11 -40 -24z"/>
<path d="M12742 8529 c-13 -20 -14 -20 -32 -4 -15 14 -21 14 -39 3 -17 -10
-20 -19 -15 -40 5 -23 1 -30 -19 -37 -13 -5 -27 -16 -30 -25 -5 -12 -2 -13 19
-6 l25 10 -26 -34 c-14 -18 -25 -41 -25 -52 0 -15 6 -12 29 16 31 37 56 103
52 135 -2 15 0 17 11 8 19 -16 60 -5 81 23 17 23 17 24 0 24 -10 0 -24 -9 -31
-21z"/>
<path d="M14065 8531 c3 -5 1 -12 -5 -16 -6 -4 -10 -52 -9 -121 l2 -114 28 0
c31 0 38 17 17 39 -9 10 -9 12 -1 7 9 -5 9 2 2 26 -11 41 -11 41 4 32 8 -5 8
-2 -2 9 -9 11 -10 17 -2 17 19 0 13 81 -6 96 -17 13 -17 14 2 7 18 -6 18 -5 6
10 -14 18 -47 24 -36 8z m35 -61 c0 -5 -8 -14 -18 -19 -14 -7 -19 -6 -19 4 0
7 6 11 14 8 7 -3 13 0 13 6 0 6 2 11 5 11 3 0 5 -4 5 -10z"/>
<path d="M12807 8508 c-15 -5 -25 -14 -21 -19 7 -12 35 -11 54 1 24 15 -1 29
-33 18z"/>
<path d="M9384 8401 c-18 -11 -35 -24 -38 -30 -9 -15 62 -32 105 -25 31 5 39
2 53 -17 9 -13 17 -23 19 -21 1 2 16 -2 32 -8 17 -6 42 -14 58 -17 22 -4 26
-2 22 10 -5 11 7 19 47 33 l53 17 -30 9 c-16 5 -46 6 -65 4 -27 -4 -40 0 -60
18 -51 47 -142 60 -196 27z"/>
<path d="M13513 8393 c-19 -10 -42 -35 -59 -67 -24 -43 -28 -63 -29 -127 0
-68 3 -81 30 -119 50 -73 133 -90 211 -45 54 32 79 91 79 185 -1 117 -61 191
-155 189 -25 0 -59 -7 -77 -16z m119 -54 c63 -34 63 -224 0 -258 -60 -32 -126
5 -137 75 -3 22 -10 47 -16 56 -19 37 -6 110 25 130 17 12 105 9 128 -3z"/>
<path d="M10088 8360 c-34 -34 -38 -75 -8 -67 16 4 20 0 20 -19 0 -29 2 -29
-83 -5 -48 14 -67 16 -69 8 0 -7 -2 -25 -3 -40 -1 -16 -8 -33 -16 -37 -19 -12
-15 -14 81 -42 l85 -25 3 -37 c3 -35 5 -37 35 -34 25 2 33 8 35 26 2 13 9 22
15 19 7 -2 118 -35 247 -71 129 -37 291 -85 360 -106 69 -21 161 -48 205 -61
44 -12 114 -32 155 -45 41 -13 120 -35 175 -49 55 -14 109 -29 120 -35 11 -5
70 -23 130 -41 61 -17 160 -46 220 -64 309 -91 576 -169 625 -181 30 -8 82
-24 115 -34 80 -26 409 -123 564 -165 71 -19 77 -26 60 -67 -8 -20 -14 -69
-13 -128 0 -118 20 -169 88 -225 39 -31 57 -39 101 -43 79 -6 117 4 165 45 46
40 90 124 90 172 0 16 3 43 6 60 6 27 11 32 28 27 129 -32 147 -35 134 -19 -7
9 -31 24 -53 34 -22 10 -53 32 -68 49 -16 16 -34 30 -40 30 -7 0 -18 9 -25 20
-7 11 -18 20 -26 20 -21 0 -113 76 -121 100 -5 17 -15 20 -56 20 -28 0 -64 -7
-81 -16 -29 -15 -37 -13 -257 51 -124 37 -253 75 -286 85 -33 11 -145 44 -250
74 -104 30 -289 83 -410 119 -121 36 -276 82 -345 101 -195 56 -297 86 -395
116 -49 16 -126 38 -170 50 -118 32 -227 64 -340 98 -55 17 -228 68 -385 114
l-285 84 2 82 1 82 -26 -1 c-15 -1 -39 -14 -54 -29z m3294 -1190 c56 -17 103
-32 105 -34 2 -2 6 -26 10 -53 7 -67 -18 -144 -60 -179 -27 -23 -38 -26 -81
-21 -42 4 -55 10 -78 37 -31 38 -43 97 -35 174 5 52 22 106 32 106 3 0 51 -14
107 -30z"/>
<path d="M12830 8358 c0 -14 -3 -33 -6 -42 -4 -10 -1 -16 9 -16 21 0 28 40 11
64 -14 20 -14 20 -14 -6z"/>
<path d="M4143 8258 c-26 -18 -33 -30 -33 -58 0 -48 -29 -102 -64 -119 -25
-12 -33 -11 -65 5 -45 23 -41 22 -70 2 l-25 -18 24 -25 c41 -43 52 -41 152 31
51 37 101 76 111 87 17 19 22 67 9 100 -7 16 -10 15 -39 -5z"/>
<path d="M12720 8225 c0 -14 4 -25 9 -25 4 0 6 11 3 25 -2 14 -6 25 -8 25 -2
0 -4 -11 -4 -25z"/>
<path d="M7586 8008 l-28 -32 23 -16 c13 -8 33 -24 45 -35 12 -11 103 -78 203
-150 99 -71 181 -135 181 -142 0 -7 9 -13 20 -13 19 0 20 -7 20 -90 0 -89 0
-90 25 -90 24 0 25 2 25 71 l0 71 28 -21 c28 -22 451 -326 488 -351 12 -8 226
-162 475 -341 250 -179 473 -339 495 -355 80 -56 267 -189 338 -241 39 -29 75
-53 81 -52 5 0 24 18 42 38 l32 38 -125 89 c-69 49 -190 134 -268 189 -194
137 -200 142 -184 152 29 17 56 65 62 107 15 97 -37 186 -111 191 -73 6 -124
-36 -143 -117 -7 -27 -14 -48 -16 -48 -4 0 -490 344 -594 421 -14 10 -131 93
-260 185 -129 92 -327 234 -440 314 -113 81 -216 153 -230 160 -14 7 -52 33
-84 57 -33 23 -63 43 -66 43 -3 0 -18 -15 -34 -32z m1901 -1064 c10 -16 17
-47 17 -79 1 -43 -4 -58 -23 -79 -31 -33 -51 -33 -86 0 -25 23 -27 30 -23 84
5 69 27 100 69 100 20 0 34 -8 46 -26z"/>
<path d="M14044 7911 c-17 -16 -36 -30 -42 -32 -5 -2 -7 -19 -5 -36 4 -28 8
-31 23 -23 10 6 21 10 24 10 3 0 6 -34 6 -76 0 -69 3 -79 25 -100 20 -19 25
-33 25 -74 0 -38 4 -50 15 -50 13 0 15 29 15 205 l0 205 -27 0 c-16 0 -41 -13
-59 -29z"/>
<path d="M8420 7816 c-13 -37 -13 -101 0 -147 11 -39 62 -95 78 -85 6 4 13 2
17 -4 12 -19 65 -11 93 15 15 14 32 25 38 25 18 0 32 22 46 74 12 44 11 49 -7
62 -32 24 -43 16 -51 -31 -8 -56 -37 -95 -70 -95 -18 0 -24 -5 -24 -20 0 -38
-31 -7 -51 51 -22 63 -24 108 -6 152 l14 32 -33 0 c-28 0 -35 -5 -44 -29z"/>
<path d="M16782 7785 c-41 -35 -55 -75 -50 -142 4 -48 10 -61 37 -85 25 -22
41 -28 77 -28 38 0 51 5 75 31 35 38 46 89 30 149 -23 91 -106 128 -169 75z
m97 -39 c40 -48 30 -149 -15 -166 -48 -19 -84 19 -84 88 0 69 65 120 99 78z"/>
<path d="M5870 7783 c0 -37 32 -100 82 -165 33 -43 62 -78 65 -78 11 0 -11 76
-25 88 -9 6 -13 12 -9 12 4 0 -18 34 -49 75 -55 73 -64 83 -64 68z"/>
<path d="M17602 7677 c-25 -27 -29 -57 -7 -57 12 0 15 -17 15 -90 l0 -90 30 0
30 0 0 130 c0 129 0 130 -23 130 -13 0 -33 -10 -45 -23z"/>
<path d="M2853 7318 c-14 -17 -27 -136 -14 -123 9 9 32 126 26 133 -1 1 -7 -3
-12 -10z"/>
<path d="M11278 7317 c-15 -7 -46 -30 -69 -51 -42 -40 -42 -40 -18 -47 14 -3
35 -12 48 -18 20 -11 26 -10 44 7 67 63 126 46 190 -55 24 -38 59 -82 78 -97
34 -29 34 -29 37 -7 2 13 0 35 -4 50 -4 14 -8 33 -9 41 -8 62 -63 143 -115
170 -45 23 -139 26 -182 7z"/>
<path d="M1220 7305 c-160 -30 -346 -111 -473 -206 -94 -71 -225 -214 -281
-307 -100 -168 -146 -336 -146 -537 0 -145 17 -240 64 -367 55 -146 117 -239
246 -368 159 -159 297 -238 530 -303 65 -18 102 -21 280 -21 178 0 215 3 280
21 233 65 371 144 530 303 164 164 251 321 294 532 21 101 21 305 0 406 -43
211 -130 368 -294 532 -160 160 -303 241 -530 302 -100 27 -388 34 -500 13z
m-622 -882 l-3 -38 -52 -3 -53 -3 0 40 0 41 56 0 55 0 -3 -37z m356 -3 l0 -35
-52 -3 -52 -3 0 41 0 41 52 -3 52 -3 0 -35z m474 3 l-3 -38 -205 0 -205 0 -3
38 -3 37 211 0 211 0 -3 -37z m456 23 c46 -19 61 -61 61 -176 0 -99 -13 -138
-53 -156 -9 -4 -106 -10 -214 -12 l-198 -4 0 111 0 111 55 0 55 0 0 -65 0 -65
109 0 c135 0 141 4 141 95 0 95 0 95 -196 95 l-164 0 0 40 0 40 185 0 c135 0
195 -4 219 -14z m527 -15 c23 -23 29 -38 29 -72 0 -43 -21 -79 -47 -79 -7 0
-13 -4 -13 -10 0 -5 5 -10 10 -10 21 0 50 -65 50 -112 l0 -48 -55 0 -55 0 0
35 c0 19 -5 46 -12 60 -11 24 -14 25 -115 25 l-103 0 0 -60 0 -60 -55 0 -55 0
0 110 0 110 164 0 c133 0 166 3 176 15 10 12 10 18 0 30 -10 12 -43 15 -176
15 l-164 0 0 40 0 40 196 0 196 0 29 -29z m-1459 -221 l0 -105 -51 -3 -51 -3
0 65 0 66 -125 0 -124 0 -3 -62 -3 -63 -52 -3 -53 -3 0 111 0 110 231 -2 231
-3 0 -105z m368 90 c-14 -11 -53 -39 -87 -62 -35 -24 -63 -45 -63 -48 0 -3 58
-4 130 -2 l130 3 0 -45 0 -46 -208 0 c-115 0 -211 2 -213 4 -2 3 -3 24 0 48 3
41 7 46 89 106 l86 62 81 0 80 0 -25 -20z"/>
<path d="M10075 7036 c-33 -15 -62 -43 -67 -66 -2 -8 -7 -18 -13 -23 -6 -4 -3
-11 8 -18 23 -14 22 -72 -3 -127 -17 -39 -18 -47 -6 -70 18 -34 44 -58 78 -71
21 -8 29 -6 44 10 25 27 48 26 33 -2 -10 -20 -9 -21 17 -15 16 4 40 15 54 24
l25 16 -25 7 c-24 7 -23 7 6 8 27 1 34 7 48 41 22 55 20 154 -3 206 -10 23
-33 51 -50 63 l-31 22 0 -34 c0 -19 7 -51 15 -70 18 -44 20 -128 3 -174 -15
-42 -64 -61 -108 -43 -80 33 -80 217 -1 260 12 6 21 18 21 27 0 9 8 22 18 29
16 12 15 13 -8 13 -14 0 -38 -6 -55 -13z m155 -60 c0 -2 -7 -7 -16 -10 -8 -3
-12 -2 -9 4 6 10 25 14 25 6z"/>
<path d="M6070 6986 c-11 -21 -8 -44 20 -168 18 -79 36 -150 41 -158 5 -9 9
62 9 168 l0 182 -28 0 c-20 0 -33 -7 -42 -24z"/>
<path d="M15631 6985 c-13 -14 -27 -25 -32 -25 -5 0 -9 -14 -9 -31 0 -28 3
-31 25 -27 l25 5 0 -128 0 -129 33 0 32 0 3 180 3 180 -28 0 c-17 0 -37 -10
-52 -25z"/>
<path d="M7435 6909 c-15 -23 -22 -38 -16 -35 8 5 11 -19 11 -79 0 -84 1 -86
23 -83 21 3 22 7 22 116 1 62 -2 115 -6 117 -4 3 -19 -14 -34 -36z"/>
<path d="M16993 6926 c-26 -27 -31 -61 -8 -52 13 4 15 -8 15 -79 0 -78 2 -85
20 -85 19 0 20 7 20 120 0 130 -5 140 -47 96z"/>
<path d="M14526 6924 c-9 -24 -7 -84 3 -84 5 0 11 21 13 46 3 46 -5 67 -16 38z"/>
<path d="M18010 6895 c-85 -16 -230 -65 -305 -102 -223 -112 -427 -327 -516
-541 -17 -43 -33 -78 -34 -80 -2 -2 -27 4 -56 12 -29 9 -54 16 -55 16 -1 0 -5
-14 -9 -31 -4 -19 -15 -33 -26 -36 -33 -9 -21 -19 39 -32 87 -20 85 -19 77
-44 -4 -12 -9 -90 -12 -173 -6 -174 7 -262 61 -406 55 -146 117 -239 246 -368
159 -159 297 -238 530 -303 65 -18 102 -21 280 -21 178 0 215 3 280 21 233 65
371 144 530 303 164 164 251 321 294 532 21 101 21 305 0 406 -43 211 -130
368 -294 532 -160 160 -303 241 -530 302 -100 27 -388 34 -500 13z m463 -666
c85 -28 147 -80 156 -130 l6 -36 82 93 82 92 63 -5 c35 -3 64 -7 66 -8 2 -2
-4 -15 -13 -29 -17 -25 -17 -26 5 -26 12 0 20 -5 18 -13 -2 -7 -63 -126 -136
-265 l-134 -252 -160 0 c-167 0 -167 0 -130 43 14 16 13 17 -18 17 l-32 0 48
57 c31 36 42 54 29 49 -123 -51 -383 -72 -516 -42 -95 21 -175 66 -193 109
-32 76 -38 106 -26 141 26 79 163 164 330 205 116 28 136 30 280 26 97 -2 140
-8 193 -26z m-973 -709 c0 -5 -11 -10 -25 -10 -36 0 -33 -30 3 -31 l27 -2 -27
-4 c-42 -6 -38 -40 5 -46 28 -3 26 -4 -10 -5 l-43 -2 0 48 c0 27 3 52 7 55 10
11 63 8 63 -3z m450 -5 c14 -17 0 -21 -17 -4 -12 12 -33 4 -33 -11 0 -5 12
-15 28 -22 32 -16 37 -51 7 -56 -19 -3 -19 -2 -2 8 14 9 16 15 6 26 -6 8 -17
14 -24 14 -7 0 -18 7 -25 15 -15 18 2 45 30 45 10 0 23 -7 30 -15z m740 4 c0
-5 -6 -8 -12 -6 -9 1 -13 -12 -14 -40 -1 -62 -14 -66 -14 -5 0 40 -4 51 -17
55 -10 2 -1 4 20 4 20 1 37 -3 37 -8z m-1150 -49 c0 -27 -4 -50 -10 -50 -5 0
-10 23 -10 50 0 28 5 50 10 50 6 0 10 -22 10 -50z m113 -4 c1 -25 -1 -46 -4
-46 -8 0 -16 58 -11 83 6 30 13 13 15 -37z m44 47 c-4 -3 -2 -12 4 -20 9 -9 8
-13 0 -13 -15 0 -14 -47 2 -53 7 -4 6 -6 -4 -6 -12 -1 -18 9 -21 32 -4 42 1
67 14 67 6 0 8 -3 5 -7z m600 0 c-4 -3 -2 -12 4 -20 8 -9 8 -13 1 -13 -7 0 -8
-10 -2 -31 7 -22 6 -29 -3 -26 -24 8 -28 97 -4 97 6 0 7 -3 4 -7z m640 0 c-4
-3 -2 -12 4 -20 9 -9 8 -13 0 -13 -15 0 -14 -33 2 -49 10 -11 9 -13 -3 -9 -26
8 -33 98 -7 98 6 0 7 -3 4 -7z m-1323 -38 c4 -11 -3 -17 -24 -22 -16 -3 -27
-10 -24 -15 4 -5 18 -7 33 -3 19 5 23 4 15 -5 -29 -30 -76 6 -60 46 7 19 52
18 60 -1z m128 3 c-5 -7 -12 -24 -15 -38 -3 -18 -5 -15 -6 13 -1 28 3 37 15
37 12 0 14 -3 6 -12z m80 -23 c4 -32 2 -35 -23 -35 -28 0 -52 21 -32 27 6 2
19 11 29 19 18 15 18 15 -3 11 -13 -3 -23 -1 -23 4 0 5 11 9 24 9 20 0 25 -6
28 -35z m155 -17 c-2 -13 -4 -5 -4 17 -1 22 1 32 4 23 2 -10 2 -28 0 -40z m79
17 c1 -28 1 -28 -3 -2 -6 38 -33 36 -33 -3 0 -16 -4 -30 -10 -30 -5 0 -10 16
-10 36 0 33 2 35 28 32 22 -2 27 -8 28 -33z m78 26 c4 -5 -3 -7 -14 -4 -25 7
-37 -21 -19 -44 12 -14 12 -16 -1 -11 -17 5 -25 32 -16 54 6 15 42 19 50 5z
m44 -3 c-9 -7 -19 -24 -21 -38 -3 -18 -5 -14 -6 13 -1 32 2 37 21 37 19 0 20
-1 6 -12z m77 -22 c0 -17 -6 -31 -15 -34 -13 -5 -13 -3 -1 11 16 20 8 47 -15
47 -13 0 -15 -7 -12 -32 4 -28 4 -29 -8 -13 -18 25 0 57 29 53 17 -2 22 -10
22 -32z m87 22 c-5 -7 -12 -24 -15 -38 -3 -18 -5 -15 -6 13 -1 28 3 37 15 37
12 0 14 -3 6 -12z m83 -22 c0 -17 -6 -31 -15 -34 -13 -5 -13 -3 -1 11 16 20 8
47 -15 47 -12 0 -15 -7 -12 -30 4 -24 2 -27 -9 -19 -27 23 -5 62 32 57 15 -2
20 -11 20 -32z m73 -3 c-1 -37 -1 -37 -5 -5 -3 18 -10 32 -18 32 -8 0 -15 -14
-18 -32 -4 -32 -4 -32 -5 5 -2 33 0 37 23 37 23 0 25 -4 23 -37z m82 22 c9
-10 9 -15 1 -15 -6 0 -11 5 -11 11 0 16 -35 6 -36 -11 0 -8 5 -21 10 -29 9
-11 7 -13 -4 -9 -17 5 -25 32 -16 54 7 18 40 18 56 -1z m135 -1 c-9 -9 -14
-23 -11 -30 3 -7 1 -16 -4 -19 -6 -4 -10 9 -10 29 0 30 4 36 21 36 19 0 19 -1
4 -16z m32 -36 c-2 -13 -4 -5 -4 17 -1 22 1 32 4 23 2 -10 2 -28 0 -40z m79
34 c1 -7 0 -8 -3 -2 -2 5 -13 10 -24 10 -14 0 -19 -7 -19 -26 0 -23 3 -26 26
-21 16 3 22 1 16 -5 -26 -26 -62 11 -48 48 7 18 48 15 52 -4z m55 11 l-25 -5
25 -18 c20 -16 22 -21 11 -32 -11 -11 -12 -10 -7 3 4 11 0 18 -14 22 -32 8
-27 37 7 36 26 -2 26 -2 3 -6z m135 -11 c1 -7 0 -8 -3 -2 -2 5 -13 10 -24 10
-14 0 -19 -7 -19 -26 0 -23 3 -26 26 -21 16 3 22 1 16 -5 -26 -26 -62 11 -48
48 7 18 48 15 52 -4z m-1110 -49 c-7 -7 -26 7 -26 19 0 6 6 6 15 -2 9 -7 13
-15 11 -17z m674 7 c0 -5 -5 -10 -11 -10 -5 0 -7 5 -4 10 3 6 8 10 11 10 2 0
4 -4 4 -10z m285 0 c3 -5 1 -10 -4 -10 -6 0 -11 5 -11 10 0 6 2 10 4 10 3 0 8
-4 11 -10z"/>
<path d="M18131 6089 c-84 -14 -181 -63 -181 -91 0 -5 17 -16 38 -25 45 -19
157 -21 229 -4 55 13 143 63 143 81 0 31 -139 54 -229 39z"/>
<path d="M17570 5470 c0 -5 7 -10 15 -10 8 0 15 5 15 10 0 6 -7 10 -15 10 -8
0 -15 -4 -15 -10z"/>
<path d="M17780 5440 c0 -5 4 -10 9 -10 6 0 13 5 16 10 3 6 -1 10 -9 10 -9 0
-16 -4 -16 -10z"/>
<path d="M14677 6876 c-8 -19 1 -26 35 -26 35 0 36 13 3 28 -32 15 -32 15 -38
-2z"/>
<path d="M14780 6860 c0 -15 56 -40 92 -40 39 0 63 -15 140 -87 31 -29 62 -53
70 -53 10 0 9 3 -2 10 -8 5 -11 12 -7 17 4 4 21 -7 38 -25 20 -21 39 -32 58
-32 15 0 31 -4 37 -10 5 -5 62 -23 127 -40 65 -17 135 -37 155 -45 20 -8 109
-35 197 -60 88 -26 211 -62 273 -81 62 -19 115 -34 118 -34 2 0 -2 -13 -11
-30 -23 -45 -20 -147 8 -200 29 -57 64 -82 125 -88 90 -8 151 49 173 163 7 33
13 61 14 62 1 2 40 -8 86 -22 173 -52 238 -66 259 -55 18 10 56 68 48 75 -4 4
-218 68 -343 102 -49 14 -102 31 -116 39 -14 7 -30 10 -34 6 -5 -4 -5 -2 -2 4
8 15 -14 24 -57 24 -30 0 -99 19 -551 151 -93 27 -188 54 -210 60 -22 7 -58
18 -80 25 -22 8 -143 43 -270 79 -126 37 -249 73 -273 81 -50 17 -62 17 -62 4z
m1456 -526 c57 -15 63 -18 68 -47 12 -67 -26 -147 -76 -163 -34 -11 -75 15
-92 57 -19 46 -20 89 -5 142 8 29 14 37 26 33 9 -4 44 -14 79 -22z"/>
<path d="M14740 6821 c0 -21 71 -69 119 -81 29 -7 55 -10 58 -6 10 9 -18 36
-37 36 -10 0 -44 14 -75 30 -63 33 -65 34 -65 21z"/>
<path d="M13391 6525 c-58 -26 -61 -31 -44 -73 20 -48 17 -47 46 -18 29 28 80
35 108 13 40 -31 56 -75 58 -168 1 -15 10 -37 20 -50 l19 -24 22 20 c20 18 22
27 17 97 -6 91 -27 140 -79 181 -45 36 -115 45 -167 22z"/>
<path d="M8670 6459 c-36 -14 -88 -68 -112 -113 -47 -91 -41 -236 13 -321 37
-59 91 -84 176 -85 54 0 67 4 105 33 66 49 101 127 101 225 1 131 -45 223
-129 258 -38 16 -117 17 -154 3z m135 -91 c40 -31 55 -77 55 -163 0 -42 -6
-90 -14 -109 -37 -89 -153 -104 -200 -25 -9 16 -22 29 -28 29 -19 0 -1 168 23
218 34 70 109 93 164 50z"/>
<path d="M10100 6243 c0 -16 -7 -37 -15 -47 -13 -17 -12 -21 6 -34 18 -12 23
-12 35 -1 7 8 16 28 20 45 5 25 1 33 -20 47 -26 17 -26 17 -26 -10z"/>
<path d="M10538 5919 c-21 -12 -24 -47 -5 -55 8 -3 27 -6 43 -7 23 -2 30 -8
32 -27 5 -32 20 -50 42 -50 10 0 24 -10 32 -21 l14 -22 37 24 c20 13 37 27 37
31 0 14 -175 137 -195 137 -11 0 -28 -4 -37 -10z"/>
<path d="M7906 5846 c-8 -14 -25 -27 -36 -31 -31 -10 -24 -61 8 -58 22 3 22 1
22 -123 l0 -125 21 15 c12 8 27 12 34 10 17 -7 21 44 17 209 -3 125 -3 127
-26 127 -14 0 -30 -10 -40 -24z"/>
<path d="M6334 5774 c3 -9 6 -21 6 -27 0 -8 3 -8 11 0 13 13 5 43 -12 43 -6 0
-8 -7 -5 -16z"/>
<path d="M10731 5721 c-11 -7 -4 -16 28 -38 22 -15 66 -47 97 -70 59 -45 77
-53 68 -28 -3 8 4 26 15 41 24 31 20 45 -7 21 -16 -15 -20 -14 -46 19 -42 53
-117 79 -155 55z"/>
<path d="M9375 5636 c-17 -7 -36 -25 -43 -40 -26 -57 -6 -154 33 -170 37 -14
86 -6 110 19 21 20 25 33 25 88 0 53 -4 67 -22 85 -31 28 -67 34 -103 18z m69
-42 c18 -18 21 -85 6 -115 -13 -23 -53 -25 -71 -3 -20 24 -17 89 5 113 23 25
39 26 60 5z"/>
<path d="M6450 5585 c-160 -30 -346 -111 -473 -206 -94 -71 -225 -214 -281
-307 -100 -168 -146 -336 -146 -537 0 -145 17 -240 64 -367 55 -146 117 -239
246 -368 159 -159 297 -238 530 -303 65 -18 102 -21 280 -21 178 0 215 3 280
21 233 65 371 144 530 303 164 164 251 321 294 532 21 101 21 305 0 406 -43
211 -130 368 -294 532 -160 160 -303 241 -530 302 -100 27 -388 34 -500 13z
m-188 -810 c-13 -28 -30 -31 -55 -12 -12 9 -19 37 -25 115 -4 57 -6 105 -4
107 3 2 25 -38 50 -90 40 -83 44 -98 34 -120z m168 76 c6 -68 9 -125 6 -128
-2 -2 -19 3 -37 13 -18 9 -55 19 -81 23 l-48 6 72 106 c40 59 74 106 75 105 2
-1 7 -58 13 -125z m141 -80 c-61 -90 -82 -106 -109 -79 -30 30 -14 56 76 117
48 32 88 57 90 56 2 -2 -24 -44 -57 -94z m-403 -53 c-21 -16 -49 -45 -61 -65
l-21 -37 -25 54 -24 53 -19 -26 c-18 -25 -21 -26 -47 -13 -54 29 -115 24 -137
-9 -24 -36 -6 -57 92 -109 l82 -44 31 20 31 20 0 -34 c1 -29 10 -63 35 -122 8
-17 5 -18 -37 -12 -38 6 -47 3 -64 -15 -35 -39 -75 -53 -149 -53 -71 1 -145
25 -145 47 0 6 7 18 16 28 15 17 18 17 54 -2 49 -26 98 -33 133 -20 40 15 33
29 -15 33 l-43 3 42 29 c24 16 40 32 37 37 -3 5 -33 23 -67 40 -34 17 -72 40
-84 52 -51 46 -35 130 31 161 38 18 123 21 175 6 19 -5 36 -8 39 -6 2 2 -8 27
-22 55 -14 28 -26 55 -26 61 0 5 51 -16 114 -47 l114 -57 -40 -28z m484 -17
l-4 -39 47 -8 47 -7 -46 -29 -46 -30 0 -62 0 -62 53 -26 52 -27 -52 0 c-40 -1
-53 -5 -53 -16 0 -12 14 -15 69 -15 38 0 81 4 95 10 30 11 29 12 15 -29 l-11
-31 -120 0 -119 0 3 42 c3 37 0 42 -21 48 -13 3 -30 15 -38 27 -13 19 -12 23
8 42 14 13 30 19 41 15 12 -3 18 0 18 10 0 20 -14 20 -45 0 l-25 -16 0 46 c0
27 -8 63 -20 86 l-20 40 54 0 55 0 -6 35 c-6 35 -6 35 33 35 l40 0 -4 -39z
m458 10 l0 -28 -70 5 -70 5 0 -57 0 -56 55 0 c55 0 61 -4 49 -34 -4 -12 -20
-16 -55 -16 l-49 0 0 -76 0 -76 90 4 c93 4 98 2 84 -36 -5 -13 -26 -16 -125
-16 l-119 0 0 205 0 205 105 0 105 0 0 -29z m175 -176 l0 -205 -35 0 -35 0 0
205 0 205 35 0 35 0 0 -205z m165 24 l0 -181 90 4 c50 2 90 2 90 -1 0 -3 -3
-16 -6 -28 -6 -22 -10 -23 -125 -23 l-119 0 0 205 0 205 35 0 35 0 0 -181z
m-1043 138 c56 -39 86 -97 86 -166 0 -86 -45 -152 -125 -185 -52 -22 -95 -20
-155 8 -151 71 -150 277 2 360 47 26 143 17 192 -17z m-429 -47 c49 0 66 -4
82 -20 26 -26 25 -48 -3 -61 -20 -9 -39 -3 -123 41 -87 44 -94 50 -59 46 22
-3 68 -6 103 -6z m579 -303 c30 -63 48 -91 58 -89 12 2 15 -10 15 -63 0 -79
-18 -87 -52 -22 l-23 42 -3 -42 c-5 -65 -22 -51 -22 17 0 41 -4 60 -12 60 -19
0 -58 -65 -58 -95 0 -14 -4 -25 -10 -25 -5 0 -10 11 -10 24 0 28 -9 56 -19 56
-3 0 -4 -29 -1 -65 3 -36 3 -65 0 -65 -4 0 -14 16 -24 36 -13 28 -20 34 -29
25 -14 -14 -57 -15 -57 -1 0 6 8 10 18 10 33 0 33 13 2 42 -17 15 -29 31 -27
35 2 5 12 25 22 46 23 50 59 49 88 -3 32 -59 40 -64 60 -32 l16 29 -49 23
c-46 22 -64 40 -40 40 16 0 88 69 95 91 4 10 9 19 13 19 4 -1 26 -42 49 -93z
m-417 18 c6 -8 10 -22 8 -32 -3 -17 -166 -138 -175 -129 -2 2 21 43 53 90 59
89 85 105 114 71z m137 -59 c21 -2 40 -5 43 -7 2 -2 -27 -50 -65 -107 -81
-118 -78 -120 -90 51 l-7 105 41 -20 c22 -11 57 -21 78 -22z m473 -56 c0 -5
-10 -10 -23 -10 -29 0 -47 -18 -47 -45 0 -27 18 -45 47 -45 13 0 23 -4 23 -10
0 -14 -53 -12 -73 3 -28 21 -32 72 -8 96 21 21 81 30 81 11z m42 -18 c-3 -19
2 -22 27 -22 26 0 31 4 31 25 0 14 5 25 10 25 6 0 10 -28 10 -65 0 -64 -16
-91 -22 -37 -2 21 -8 27 -28 27 -20 0 -25 -5 -25 -24 0 -14 -6 -26 -13 -29 -9
-3 -12 15 -12 63 0 49 3 66 13 62 6 -2 11 -14 9 -25z m184 -17 c0 -22 4 -50 8
-62 10 -32 -10 -29 -26 3 -16 33 -32 33 -36 -1 -7 -51 -22 -23 -22 41 l0 65
38 -3 c36 -3 37 -4 38 -43z m136 28 c22 -20 23 -70 1 -95 -36 -40 -103 -10
-103 45 0 58 60 88 102 50z m128 7 c0 -5 -9 -10 -20 -10 -18 0 -20 -7 -20 -55
0 -30 -4 -55 -10 -55 -5 0 -10 25 -10 55 0 48 -2 55 -20 55 -11 0 -20 5 -20
10 0 6 23 10 50 10 28 0 50 -4 50 -10z m84 4 c18 -7 22 -39 6 -49 -6 -4 -4
-17 5 -35 18 -34 18 -40 5 -40 -5 0 -17 14 -25 30 -18 34 -35 31 -35 -6 0 -13
-4 -24 -10 -24 -6 0 -10 28 -10 65 0 62 1 65 24 65 13 0 31 -3 40 -6z m150
-16 c33 -46 7 -108 -44 -108 -16 0 -36 7 -44 16 -18 18 -21 66 -6 95 15 28 74
26 94 -3z m93 -23 l23 -40 0 43 c0 23 5 42 10 42 6 0 10 -29 10 -66 0 -75 -12
-81 -45 -21 -25 47 -33 47 -31 1 1 -22 -4 -39 -11 -41 -10 -4 -13 13 -13 62 0
58 2 66 17 63 10 -2 28 -21 40 -43z"/>
<path d="M6330 4231 c0 -5 5 -13 10 -16 6 -3 10 -2 10 4 0 5 -4 13 -10 16 -5
3 -10 2 -10 -4z"/>
<path d="M6580 4211 c0 -5 7 -14 15 -21 12 -10 15 -10 15 3 0 8 -7 17 -15 21
-8 3 -15 2 -15 -3z"/>
<path d="M6920 4225 c0 -8 9 -15 20 -15 11 0 20 7 20 15 0 8 -9 15 -20 15 -11
0 -20 -7 -20 -15z"/>
<path d="M7039 4219 c-8 -16 -8 -28 0 -45 18 -41 71 -25 71 21 0 44 -50 61
-71 24z"/>
<path d="M7280 4225 c0 -10 7 -15 18 -13 21 4 19 22 -2 26 -10 2 -16 -3 -16
-13z"/>
<path d="M7402 4228 c-29 -29 -4 -84 35 -76 28 5 26 82 -2 86 -11 1 -26 -3
-33 -10z"/>
<path d="M12020 5575 c-160 -30 -346 -111 -473 -206 -94 -71 -225 -214 -281
-307 -100 -168 -146 -336 -146 -537 0 -145 17 -240 64 -367 55 -146 117 -239
246 -368 159 -159 297 -238 530 -303 65 -18 102 -21 280 -21 178 0 215 3 280
21 233 65 371 144 530 303 164 164 251 321 294 532 21 101 21 305 0 406 -43
211 -130 368 -294 532 -160 160 -303 241 -530 302 -100 27 -388 34 -500 13z
m392 -713 c-299 -43 -536 -122 -714 -237 l-73 -48 94 99 c52 54 183 190 290
302 l196 203 147 -153 146 -153 -86 -13z m318 -217 l115 -116 -70 27 c-175 67
-339 107 -520 127 l-110 13 200 31 c290 45 250 53 385 -82z m-1140 -330 l95
-95 -36 0 c-25 0 -42 7 -59 25 -22 23 -30 25 -120 25 -90 0 -98 -2 -120 -25
-17 -18 -34 -25 -59 -25 l-36 0 96 95 c68 67 103 95 120 95 17 0 52 -27 119
-95z m290 20 l0 -74 107 -3 c93 -3 108 -5 111 -20 3 -16 -8 -18 -127 -18 -158
0 -161 2 -161 117 l0 73 35 0 35 0 0 -75z m687 60 c17 -12 21 -25 21 -80 0
-92 -6 -95 -185 -95 l-143 0 0 95 0 95 143 0 c109 0 147 -3 164 -15z m492 -80
l96 -95 -36 0 c-25 0 -42 7 -59 25 -22 23 -30 25 -120 25 -90 0 -98 -2 -120
-25 -17 -18 -34 -25 -59 -25 l-36 0 96 95 c65 65 103 95 119 95 16 0 54 -30
119 -95z"/>
<path d="M11435 4330 c-18 -20 -17 -20 30 -20 47 0 48 0 30 20 -10 11 -23 20
-30 20 -7 0 -20 -9 -30 -20z"/>
<path d="M12320 4355 c0 -12 18 -15 105 -15 87 0 105 3 105 15 0 12 -18 15
-105 15 -87 0 -105 -3 -105 -15z"/>
<path d="M12327 4294 c-4 -4 -7 -13 -7 -21 0 -10 24 -13 106 -13 95 0 105 2
102 18 -3 14 -17 17 -99 20 -52 1 -98 0 -102 -4z"/>
<path d="M12905 4330 c-18 -20 -17 -20 30 -20 47 0 48 0 30 20 -10 11 -23 20
-30 20 -7 0 -20 -9 -30 -20z"/>
<path d="M7932 5508 c-19 -19 -14 -30 11 -26 12 2 22 9 22 17 0 19 -18 24 -33
9z"/>
<path d="M16252 5068 c-22 -18 -47 -38 -57 -43 -13 -8 -15 -18 -10 -47 l7 -37
29 15 29 15 0 -74 c0 -74 0 -75 28 -80 17 -4 34 -17 43 -34 13 -26 14 -15 17
132 1 87 0 165 -2 172 -9 22 -42 14 -84 -19z"/>
<path d="M17320 4830 l-35 -19 48 -1 c47 0 58 9 35 28 -9 7 -23 5 -48 -8z"/>
</g>
</svg>
